<?xml version="1.0" encoding="UTF-8"?>
<svg id="_レイヤー_2" data-name="レイヤー 2" xmlns="http://www.w3.org/2000/svg" viewBox="0 0 353.95 134.1">
  <defs>
    <style>
      .cls-1 {
        fill: #00a0e9;
        stroke-width: 0px;
      }
    </style>
  </defs>
  <g id="_レイヤー_4" data-name="レイヤー 4">
    <path class="cls-1" d="M15.67,134.1c-.11,0-.22-.01-.32-.04l-14.17-3.11c-.71-.16-1.2-.79-1.18-1.51.02-.72.56-1.33,1.27-1.43l267.34-40.56-1.85-1.23c-.13-.09-.25-.2-.35-.32l-2.34-2.96c-.13-.17-.23-.37-.28-.58l-.78-3.27c-.02-.08-.03-.17-.04-.26l-.31-5.14c-.01-.21.02-.43.1-.63l2.02-5.29c.03-.07.06-.14.1-.21l1.56-2.74-10.78,5.59c-.49.26-1.09.22-1.55-.1-.27-.19-.57-.38-.84-.54-2.55,2.79-12.13,14.19-18.17,21.45-.47.57-1.29.71-1.93.32l-5.92-3.58c-.08-.05-.15-.1-.21-.16l-3.89-3.43c-.5-.44-.65-1.16-.36-1.77.29-.61.95-.95,1.6-.84l5.67.94,3.82-4.84.12-3.45-.9-1.64-8.35,4.9c-.65.38-1.49.22-1.95-.38-.46-.6-.41-1.44.13-1.98l5.16-5.16-2.77.92-10.15,17.57c-.33.57-.99.86-1.64.71l-1.7-.39-6.94,1.48-4.66,1.35-.03.02c-.26.17-.55.25-.86.24l-2.38.69-9.86,4.62c-.7.32-1.53.07-1.92-.58-.4-.66-.23-1.51.38-1.97l7.78-5.88-3.71-2.05c-.51-.28-.81-.83-.77-1.41s.4-1.08.94-1.3l7.31-2.94-.6-4.84-4.62,1.74-.68,3.22c-.13.62-.64,1.1-1.28,1.18-.62.08-1.25-.25-1.53-.82l-1.56-3.11c-.19-.38-.21-.82-.05-1.22.15-.4.47-.71.87-.86l1.64-.62.63-2.97-.55-2.82-8.17,6.79c-.35.29-.8.41-1.25.32-.31-.06-.58-.21-.79-.43l-.07,1.52c-.03.68-.51,1.25-1.17,1.4-.4.09-.81,0-1.14-.2l1.21,16.22c.04.57-.24,1.11-.72,1.4-.48.29-1.09.29-1.57-.02l-4.2-2.65c-.18-.11-.33-.26-.45-.44l-2.49-3.74c-.13-.2-.21-.42-.24-.66l-.62-5.29c-.02-.16-.01-.31.02-.47l1.4-7.01c.04-.18.1-.35.2-.5l2.39-3.8-11.97,6.09c-.42.21-.91.22-1.33.02l-5.07,19.42c-.11.42-.4.78-.79.97-.39.19-.85.2-1.25.04l-6.23-2.65c-.15-.06-.28-.15-.4-.25l-3.16-2.75-1.62,4.19c-.09.23-.23.44-.42.6l-4.36,3.74c-.47.4-1.13.47-1.68.19-.54-.29-.86-.88-.79-1.49l.83-7.33-1.45,7.02c-.16.76-.87,1.28-1.65,1.19-.77-.09-1.35-.76-1.32-1.54l.15-4.29-.44-7.89-.19-.26-4.72,6.96c-.45.66-1.33.85-2.01.45-.32-.19-.54-.48-.65-.8l-.98,1.91c-.33.65-1.08.96-1.78.75l-1.73-.53-6.89.73-8.78,2.42-9.53,4.61c-.7.34-1.54.09-1.94-.58-.4-.66-.23-1.52.4-1.98l7.11-5.21-2.58-1.06c-.54-.22-.91-.74-.93-1.33s.3-1.13.83-1.4l6.88-3.44-.85-4.63-9,3.64c-.72.29-1.55-.02-1.9-.72-.35-.7-.1-1.55.57-1.96l9.81-5.91-3.32-2.32-12.02,4.69c-.57.22-1.2.08-1.61-.34l.07.84c.06.72-.4,1.38-1.09,1.57-.15.04-.3.05-.44.06h.01c.1.07.19.14.28.21l3.11,2.96c.29.28.46.66.47,1.07,0,.4-.15.79-.44,1.08l-4.2,4.2c-.41.41-1.03.55-1.58.35-.55-.2-.93-.7-.98-1.28l-.63-7.43-2.77-1.62-.98,1.29.21.43c.13.27.19.57.14.87l-.93,6.85c-.02.12-.05.23-.09.34l-2.49,6.38c-.05.14-.13.26-.22.38l-2.8,3.58c-.35.45-.92.66-1.48.54-.56-.12-1-.54-1.15-1.09l-1.33-5.03c-.47.3-1.08.32-1.58,0-.66-.4-.9-1.24-.57-1.93l2.57-5.3.71-3.09-4.77,1.95-11.49,8.73-2.62,7.87c-.16.47-.53.83-1,.97-.47.14-.98.03-1.37-.28l-2.49-2.02c-.18-.15-.32-.33-.42-.54l-5.67,4.3c-.55.42-1.32.41-1.86-.03-.54-.44-.7-1.19-.4-1.81l3.79-7.88.61-4.88-4.2.26c-.31.02-.61-.06-.86-.21l-1.48,1.37c-.54.5-1.37.53-1.95.07-.27-.21-.45-.5-.53-.82l-9.83,12.84-.14,3.67c-.02.57-.36,1.08-.88,1.31-.52.23-1.12.16-1.56-.2l-2.79-2.26-5.33,1.6c-.06.02-.13.03-.2.04-.24.45-.7.76-1.24.79-.84.02-1.51-.56-1.58-1.37l-.35-4.16c-.66.22-1.39-.03-1.76-.63-.39-.62-.26-1.44.29-1.92l1.11-.97-.2-.92-1.18-.96c-.4-.33-.61-.84-.54-1.35.06-.51.39-.96.86-1.18l.1-.04-.26-1.2-2.4-4.65c-.22-.43-.22-.93,0-1.36l.62-1.25,4.52-8.88c.21-.42.61-.72,1.08-.8L286.3,31.84l-3.08-.19c-.6-.04-1.12-.43-1.32-.99l-.78-2.18c-.13-.36-.11-.75.03-1.1l.93-2.18s.04-.08.06-.12l2.96-5.45c.04-.07.09-.14.14-.21l2.9-3.7-2.25-1.12-3.33,2.17c-.62.41-1.44.3-1.94-.25-.5-.55-.52-1.38-.05-1.95l1.81-2.23.83-3.42-1.59.61-7.69,18.1c-.22.53-.73.88-1.3.91l-8.21.46-9.52,3.17-9.41,4.63c-.69.34-1.53.1-1.93-.55-.41-.65-.25-1.51.35-1.98l7.71-5.99-3.7-1.75c-.54-.26-.88-.81-.86-1.42s.41-1.13.97-1.34l7.58-2.87-.29-3-.37-2.08-3.61,1.49-1.62,3.1c-.36.69-1.18.99-1.9.69-.72-.29-1.09-1.09-.86-1.83l1.78-5.79-.23-2.63-7.74,21.67c-.15.41-.47.74-.88.9-.41.16-.87.12-1.26-.09l-10.12-5.6c-.11-.06-.21-.13-.3-.22l-4.5-4.21-.7-.12-.1.45c-.01.06-.03.12-.05.17l-1.4,3.89c-.04.12-.1.24-.17.34l-3.43,4.98c-.11.16-.25.29-.4.4l-2.8,1.87c-.56.37-1.3.33-1.81-.11-.51-.44-.66-1.17-.38-1.77l6.07-12.92c.29-.61.95-.95,1.61-.84l.58.1.48-2.11.28-4.53-.51-1.32-19.54,24.14c-.44.54-1.19.71-1.81.41-.63-.3-.96-.99-.82-1.67l1.25-5.76c.02-.09.05-.19.09-.28l2.37-5.48v-2.43l-1.79-2.24-3.26-.47-1.88,1.08-.21,1.33c-.01.07-.03.14-.05.21l-2.18,7.16c-.05.16-.12.3-.21.44l-2.33,3.27c-.06.08-.12.16-.2.22l-2.34,2.18c-.46.43-1.13.53-1.69.25l-2.8-1.4c-.65-.32-.97-1.06-.77-1.75l1.26-4.43-17.36,15.31c-.56.5-1.41.5-1.98,0-.57-.5-.68-1.33-.26-1.96l1.38-2.07,1.16-6.65-.74-7.71-1.14-3.16-1.26,3.63c-.02.05-.04.1-.06.15l-3.89,8.25c-.26.55-.81.88-1.42.86-.6-.03-1.13-.41-1.34-.98l-1.09-2.96c-.06-.17-.09-.34-.09-.52v-5.92c0-.16.02-.32.07-.47l1.67-5.12-15.33,3.46c-.3.07-.6.04-.87-.06v.21c.06.69-.36,1.31-1.02,1.53-.65.21-1.37-.04-1.73-.62l-.72-1.14.1,1.14,3.91,3.16c.14.11.25.24.34.4l.93,1.56c.38.63.25,1.43-.31,1.91l-4.52,3.89c-.43.37-1.02.46-1.54.25-.52-.21-.88-.69-.93-1.25l-.77-8.38-1.99-1.6-.94,1.25.45,3.42c.02.16.02.33-.02.49l-1.25,6.23c-.02.11-.06.21-.1.32l-3.11,7.01c-.06.13-.13.24-.22.35l-1.56,1.87c-.3.36-.75.56-1.22.54-.47-.02-.9-.26-1.17-.64l-2.49-3.58c-.23-.33-.32-.73-.24-1.12l.22-1.22c-.36.07-.75.02-1.09-.19-.66-.41-.9-1.25-.55-1.95l1.96-3.92.85-2.98-3.45,1.15-5.04,12.59c-.27.67-.98,1.06-1.69.91l-3.63-.73-6.69,1.02-14.44,6.76c-.74.35-1.62.04-1.98-.7-.36-.73-.07-1.62.66-2l10.4-5.34v-4.48l-.14-1.87-18.19,5.08-.93.5.45,2.85c.01.07.02.14.02.2l.16,7.47c.01.61-.35,1.17-.91,1.41-.56.24-1.22.11-1.65-.32l-2.18-2.18-3.99-3.62-.15,4.48c-.03.8-.67,1.44-1.47,1.45-.8,0-1.47-.6-1.52-1.4l-.25-3.65c-.59.18-1.25-.02-1.63-.53-.46-.62-.38-1.49.18-2.01l1.2-1.1-.04-.57-.69-.63c-.14-.12-.25-.27-.33-.43l-.79,3.11c-.03.13-.09.26-.16.38l-3.89,6.7c-.4.68-1.26.94-1.97.59-.71-.35-1.02-1.2-.71-1.93l5.43-12.81.54-2.12.36-3.81c-.12-.4-.08-.81.11-1.16l.09-.96-.44.22c-.68.34-1.5.11-1.92-.52-.42-.63-.3-1.47.28-1.97l.55-.47-.26-.46s-.05-.09-.07-.13l-13.94,18.37c-.16.2-.36.37-.6.47l-9.35,4.08.37,1.07c.26.77-.13,1.61-.9,1.89-.76.28-1.61-.09-1.91-.84l-.36-.89c-.74.31-1.59,0-1.93-.73-.35-.72-.07-1.6.64-1.98l.17-.09-2.04-5.05-6.04,7.84c-.5.65-1.43.78-2.09.28-.66-.5-.79-1.43-.3-2.09l2.18-2.96,4.16-6.32,2.23-3.76-6.61,2.85c-.76.33-1.64-.02-1.97-.78-.33-.76.02-1.64.78-1.97l8.29-3.58.79-6.29c.1-.81.82-1.38,1.63-1.31l12.77,1.25c.68.07,1.23.59,1.34,1.26.11.68-.26,1.34-.89,1.61l-12.87,5.55-.25,1.97c-.03.2-.09.4-.2.58l-.16.27c.18.2.3.46.35.74l.26,1.55,7.13-3.28c.33-.15.7-.18,1.04-.08l2.18.62c.39.11.72.38.91.73.19.36.23.78.11,1.16l-1.35,4.25.36-.16,16.42-21.64c.31-.4.8-.63,1.3-.59l4.15.29,4.03-1.73c.68-.29,1.47-.04,1.86.59s.26,1.45-.3,1.93l-.52.45,2.15-1.06c.58-.29,1.27-.17,1.73.29.45.46.57,1.15.28,1.73l-1.14,2.28.99.07c.7.05,1.27.57,1.38,1.26.11.69-.28,1.37-.92,1.62l-3.49,1.4c.31.11.58.31.77.6l1.71,2.65c.11.17.19.37.22.58l.08.48c.6-.12,1.22.12,1.57.65.4.61.3,1.43-.24,1.92l-.8.73v.04s.17-.09.17-.09c.1-.05.2-.09.3-.12l18.93-5.28-.53-6.95-3.38-5.29c-.41-.63-.28-1.47.3-1.96.58-.49,1.42-.47,1.98.04l11.37,10.43c.36.33.54.82.47,1.3-.06.49-.36.91-.79,1.13l-6.26,3.26.21,2.77s0,.08,0,.11v3.6l1.29-.6c.13-.06.27-.1.41-.12l7.16-1.09c.17-.02.35-.02.52.01l2.67.53,4.83-12.08c.16-.41.5-.73.92-.87l6.06-2.02,2.16-7.56c.22-.78,1.03-1.24,1.81-1.04.79.2,1.27.99,1.09,1.78l-1.12,5,.51-.27c.14-.07.29-.12.45-.15l.83-.14,2.26-3.02c.24-.33.61-.54,1.01-.59.41-.05.81.07,1.13.32l.93.75-.41-4.43c-.06-.69.35-1.33,1.01-1.56.66-.22,1.38.03,1.75.62l.88,1.39-.06-.95c-.05-.72.42-1.37,1.11-1.55.69-.18,1.42.15,1.73.79l1.97,4.07,16.74-3.79c.53-.12,1.08.05,1.44.45.36.4.48.96.32,1.48l-2.42,7.4v4.25l2.09-4.43,2.62-7.55c.21-.6.77-1,1.41-1.01.61,0,1.2.39,1.42.99l2.65,7.32c.04.12.07.24.08.37l.78,8.1c.01.13,0,.27-.02.4l-.71,4.1,24.4-21.51c.47-.42,1.16-.49,1.71-.19.51.28.81.83.78,1.4l.25-.14c.29-.17.63-.23.96-.18l4.36.62c.38.05.72.25.96.55l2.49,3.11c.21.27.33.6.33.94v3.27c0,.21-.04.41-.12.6l-2.07,4.78,16.96-20.95c.34-.42.87-.62,1.4-.54.53.08.97.44,1.17.94l1.56,4.05c.08.2.11.42.1.63l-.31,4.98c0,.08-.02.16-.04.24l-.47,2.07.98.17c.29.05.56.18.77.38l4.69,4.39,8.41,4.66,8.75-24.49c.22-.61.8-1.03,1.45-.99.65.02,1.21.45,1.4,1.07l1.25,4.2c.03.1.05.2.06.3l.31,3.58c.01.13,0,.26-.02.39l2.68-1.11-1.58-9.01c-.11-.6.17-1.21.69-1.54s1.19-.3,1.68.07l9.5,7.01c.44.32.66.85.6,1.39-.07.54-.42,1-.92,1.2l-6.59,2.73.49,2.79s.01.08.02.12l.22,2.25,8.04-3.04c.69-.26,1.47.02,1.84.67.36.65.2,1.46-.39,1.92l-8.94,6.94-.06,1.34,4.64-1.55c.13-.04.26-.07.39-.08l7.48-.42,7.58-17.82c.16-.38.46-.67.84-.81l4.12-1.58,1.03-4.23c.1-.4.36-.75.72-.95.36-.2.79-.25,1.18-.13l6.54,2.02c.61.19,1.04.74,1.06,1.38.02.64-.37,1.22-.96,1.45l-7.02,2.69-.91,3.76c.26,0,.51.04.75.16l3.56,1.78,3.15-4.01c.42-.53,1.14-.72,1.77-.46.62.26.99.91.9,1.59l-1.87,13.55c-.1.71-.68,1.25-1.39,1.29-.7.05-1.36-.42-1.54-1.11l-1.45-5.42-1.91,2.43-2.86,5.28-.68,1.58.25.69,3.68.23,4.59-1.67,5.09-4.34c.21-.18.46-.29.72-.34l11.99-2.02c.56-.09,1.13.14,1.46.6l4.51,6.23c.3.42.37.96.18,1.44-.19.48-.62.82-1.13.91L7.64,83.81l-4.45,8.76.88,1.7v-.4c-.02-.51.22-.99.64-1.28l3.43-2.34c.12-.08.25-.14.38-.19l5.29-1.71c.39-.13.82-.09,1.18.11.36.2.63.53.73.93l.92,3.41c.54-.05,1.07.21,1.38.68.41.63.29,1.46-.27,1.95l-.32.28.31,1.16c.02.09.04.19.05.28l.14,1.85.97-.24c.68-.17,1.38.16,1.69.78.01.02.02.05.03.07l13.94-18.21c.47-.61,1.32-.77,1.97-.37.66.4.9,1.23.57,1.93l-2.1,4.4,7.68-7.08c.3-.28.69-.41,1.1-.4.41.02.78.21,1.05.52l8.88,10.28.02.03,4.63-3.51c.1-.08.22-.14.34-.19l6.91-2.82,1.23-5.32c.18-.79.97-1.3,1.77-1.13.8.17,1.32.94,1.17,1.74l-.59,3.23,1.66-.69c.42-.17.87-.14,1.25.05l1.08-1.43c.46-.61,1.3-.77,1.96-.39l2.1,1.23-.46-5.41c-.06-.72.4-1.38,1.09-1.57.58-.16,1.19.04,1.56.49.07-.58.47-1.07,1.03-1.25.67-.21,1.39.07,1.75.67l2.47,4.19,11.58-4.52c.47-.18.99-.12,1.41.17l4.67,3.27c.4.28.64.74.64,1.23v.89l7.06-2.31c.77-.25,1.6.15,1.88.91.28.76-.1,1.6-.85,1.91l-7.78,3.15.81,4.38,3.71-1.86c.53-.26,1.16-.19,1.62.18l1.71,1.4c.36.29.56.74.55,1.2-.01.46-.24.9-.61,1.17l-6.6,4.84.02.8,4.67-1.29c.08-.02.16-.04.24-.04l7.32-.78c.2-.02.41,0,.6.06l.82.25,4.44-8.65c-.26-.46-.28-1.03,0-1.51l6.7-11.52c.41-.7,1.3-.95,2.02-.56.71.39.99,1.28.61,2l-1.89,3.68c.49-.2,1.06-.12,1.49.22.56.45.73,1.23.4,1.87l-2.43,4.67c.11.08.2.18.28.29l1.71,2.33c.13.18.22.38.26.59l.14-.67c-.23-.3-.34-.69-.29-1.09l1.4-11.05c.06-.51.39-.96.86-1.17l1.23-.57c.2-.17.45-.28.71-.33l4.45-2.06c.46-.21.99-.18,1.42.09.43.27.7.73.71,1.24l.14,5.34.83,1.27,2.89-2.04c.47-.33,1.08-.36,1.58-.09.5.27.8.8.78,1.38l-.16,4.05c-.02.45-.23.87-.59,1.14-.36.27-.82.37-1.26.26l-1.83-.44c.12.31.13.66.03.98l-2.22,7.14,3.93,3.43,4.41,1.87,5.17-19.81c.12-.47.47-.86.93-1.03.46-.17.98-.1,1.38.18l.82.57,16.01-8.16c.6-.3,1.33-.17,1.79.33.46.5.52,1.24.16,1.81l-1.41,2.24c.15.12.28.28.38.46l.23.43.06-1.36c.03-.67.51-1.25,1.17-1.39.66-.15,1.33.16,1.65.75l1.47,2.74,8.71-7.23c.41-.34.96-.44,1.46-.26.5.18.87.61.97,1.13l1.09,5.61c.04.2.04.4,0,.6l-.29,1.39,3.51-1.32-.53-4.25-1.87-3.16c-.34-.58-.26-1.32.22-1.81s1.21-.59,1.8-.26l10.9,6.07c.51.28.81.84.77,1.42-.04.58-.42,1.09-.97,1.29l-7.06,2.66.59,4.77,4.14-1.67c.16-.06.32-.1.49-.11l3.42-.16c.68-.02,1.26.37,1.48.99.22.62.02,1.31-.51,1.71l-8.38,6.33.1,1.35,3.37-.97s.07-.02.1-.03l7.32-1.56c.22-.05.44-.04.65,0l.94.22,9.88-17.1c.18-.32.48-.56.82-.67l4.09-1.36-2.11-1.85c-.57-.5-.68-1.35-.25-1.97s1.25-.84,1.93-.49l4.76,2.46,1.82-.91c.66-.33,1.46-.13,1.89.46.43.6.36,1.42-.16,1.94l-.22.22,1.56.81c.49.25.8.75.81,1.29.02.55-.27,1.06-.74,1.33l-1.52.9,1.14,2.07c.13.24.2.51.19.78l-.16,4.36c-.01.32-.12.62-.32.88l-4.67,5.92c-.34.43-.89.64-1.42.55l-1.27-.21,4.46,2.7c18.16-21.81,18.41-21.81,19.32-21.81.24,0,.76,0,2.12.85l16.03-8.31c.63-.33,1.4-.17,1.85.38.45.55.46,1.33.01,1.89l-3.66,4.58-1.75,3.07-1.87,4.88.28,4.68.67,2.82,1.98,2.51,2.61,1.74,10.29-19.99c.29-.56.9-.87,1.51-.8.62.08,1.13.53,1.28,1.14l2.87,11.95.33.38,2.33-3.61,2.25-3.2-.31-4.76c-.01-.18,0-.36.06-.54l1.71-5.61c.06-.21.17-.4.32-.57l1.4-1.56c.44-.49,1.16-.64,1.76-.35l2.96,1.4c.42.2.72.58.82,1.03l.62,2.8s.01.08.02.11l1.97.46c.6.14,1.05.64,1.14,1.25l.47,3.27c.02.16.02.32,0,.47l-.93,5.29c-.03.14-.07.28-.14.41l-1.13,2.26,24.29-23.33c.46-.44,1.15-.54,1.72-.26.57.29.89.9.81,1.54l-.62,4.67c-.02.15-.06.29-.12.42l-1.56,3.43c-.06.13-.13.25-.23.36l-2.71,3.16-1.6,2.85,2.85,3.35,5.25,4.96,10.95-1.66,4.51-2.16,1.75-1.31c.35-.26.81-.36,1.23-.26l3.42.78c.39.09.73.33.94.67s.28.75.19,1.14l-.78,3.27c-.06.24-.18.47-.34.66l-1.4,1.56c-.38.43-.98.6-1.53.44l-3.27-.93c-.63-.18-1.05-.74-1.09-1.36l-2.75.42-8.96,4.28c-.56.27-1.23.16-1.68-.26l-2.19-2.07-32.46,4.92c-.33.19-.73.25-1.09.17l-139.14,21.11c.09.15.16.31.19.49.16.81-.37,1.6-1.18,1.76l-15.88,3.11-22.74,4.36-23.34,4.67-28.83,5.3-22.87,4.51-16.74,2.35c-.06,0-.12.01-.19.01l-9.96.16h-.02ZM9.72,129.76l6.1,1.34,9.7-.15,16.57-2.32,22.81-4.5,28.82-5.3,23.33-4.67,17.16-3.29-124.49,18.89ZM7.37,105.76l.06,2.34,1.43-1.19-1.45-1.17-.05.02ZM15.32,105.44l-1.62,1.35,1.58-.47.03-.87ZM10.57,104.44l.64.52,1.86-1.55-2.5,1.03ZM43.35,102.98l.39.31.55-1.65-1.04.79.11.54ZM39.51,98.95l-.08.67c-.02.16-.07.32-.14.46l-1.2,2.49,1.85-1.4-.43-2.22ZM14.84,97.95l-3.25,2.82,1.33-.55c.07-.03.14-.05.22-.07l1.84-.45-.13-1.76ZM7.23,100.39v.2s.52-.44.52-.44l-.52.24ZM66.56,97.34l.55,2.07.81-1.03,2.35-6.01.48-3.54-3.54,4.68-.08.44-.57,3.4ZM41.56,93.85l1.04,5.3,3.37-2.56.58-1.74-.04-1.32-4.94.31ZM136.88,90.04l-.81,7.18,1.18-1.01,1.85-4.87-1.38-1.2-.85-.09ZM7.07,94.61l.07,2.51,6.72-3.12-.62-2.3-3.59,1.16-2.57,1.75ZM98.7,93.7l1.23.5,1.51-1.11-.02-.76-2.73,1.36ZM49.5,93.35l.02.55.79-.6-.81.05ZM173.38,92.11l1.42.89-1.32-17.59-1.47,2.33-1.3,6.5.55,4.7,2.11,3.17ZM104.39,90.85v.07s.31-.23.31-.23l-.31.16ZM37.82,88.84l-1.64,1.52,1.43-.42.08-.66c.02-.16.06-.31.13-.44ZM49.42,90.29v.05s.04,0,.04,0l-.04-.05ZM80.73,87.32l.15,1.77.83-.83-.98-.93ZM39.18,87.97c.68,0,1.27.45,1.44,1.1l3.59-1.04c.18-.05.37-.07.56-.05l2.88.27-4.08-4.72-4.91,4.54c.15-.05.3-.09.47-.09.02,0,.04,0,.05,0ZM136.33,86.96l2.19.24c.3.03.59.16.82.36l.73.64.92-2.97-4.67,1.72ZM193.86,85.79l2.11,1.17,1.55-1.17-.11-1.42-3.56,1.43ZM68.54,86.21l-.13.73.74-.98-.61.25ZM282.34,70.55l-8.26,16.06,21.81-3.31,1.25-1.97.11-.9s-.05-.02-.08-.04l-2.96-1.4c-.39-.19-.68-.53-.8-.95l-.65-2.31-.42.59-3.39,5.25c-.26.4-.69.65-1.16.68-.47.02-.93-.16-1.24-.52l-1.87-2.18c-.15-.18-.26-.39-.32-.63l-2.01-8.37ZM200.33,83.19l.03.45,1.31-.99-1.34.54ZM137.33,74.7l-1.81,8.77,5.35-3.76-1.12-1.72c-.15-.23-.23-.5-.24-.78l-.09-3.48-2.08.97ZM326.11,58.65l-24.82,23.83,25.87-3.92-3.61-3.41s-.08-.08-.11-.12l-3.58-4.2c-.41-.48-.47-1.16-.17-1.71l2.18-3.89c.05-.09.11-.17.17-.24l2.66-3.11,1.38-3.03.03-.2ZM348.72,77.66l1.06.3.52-.58.34-1.42-1.27-.29-.77.58c.18.31.25.67.19,1.03l-.07.38ZM296.1,76.58l1.51.72.41-3.41.3-4.44.04-1.49-.27.19-2.93,4.17.08,1.19.86,3.08ZM301.41,66.48l-.08,3.1-.28,4.14.15-.3.85-4.84-.29-2.02-.35-.08ZM198.61,68.89l.42,3.37,3.36-1.27-3.78-2.1ZM294.8,66.76l.05.77.95-1.34c.1-.15.23-.27.38-.38l2.29-1.56v-.48s-.41-1.91-.41-1.91l-1.29-.61-.43.48-1.54,5.02ZM71.54,43.96l3.74,3.39-.08-3.68-.27-1.72-.79.42-2.6,1.59ZM36.43,44.26l.71,2.09,5.15-2.76,1.37-4.33-.16-.05-7.35,3.39.28,1.66ZM65.68,38.96l-.26,1.01s.04-.02.05-.04l.26-.16-.06-.81ZM124.54,37.75l1.01,1.45.16-.2,2.96-6.66,1.16-5.82-.02-.12-4.18,5.58-.29,1.31-.81,4.47ZM69.5,34.69l.39,1.25c.05.16.07.33.07.49l-.02.74,1.31-.82c.06-.04.12-.07.19-.1l2.43-1.06-.14-.91-.92-1.42-1.19.37-2.11,1.46ZM186.08,30.61l.76.38,1.46-1.37,2.11-2.95,1.69-5.55-1.24.71-3.35,3.77-1.43,5.01ZM36.44,27.89l-.39,3.09,5.91-2.55-5.52-.54ZM299.39,25.49l-4.98,4.25c-.14.12-.29.21-.46.27l-2.62.95,21.29-3.74-2.56-3.53-10.66,1.8ZM99.16,25.57l.38,4.99,3.22-1.68-3.6-3.31ZM66.66,28.54l.14.25c.04.08.08.16.11.25l2.4-1.18-1.11-.08-1.54.76ZM138.58,25.94l.24,2.57,1.35-1.17-.15-.25-1.44-1.16ZM252.43,25.32l1.88.89,1.73-1.34-.08-.88-3.52,1.33ZM63.68,24.46l1.73.12.97-.83-2.06-.14-.65.85ZM291.78,15.96l.22.47.13-.92-.35.45ZM256.49,6.96l.82,4.66,3.52-1.46-4.34-3.2ZM287.67,3.4l-.16.67,1.03-.4-.87-.27Z"/>
  </g>
</svg>