<?xml version="1.0" encoding="UTF-8"?>
<svg id="logo" xmlns="http://www.w3.org/2000/svg" viewBox="0 0 1318.07 114.94">
  <defs>
    <style>
      .cls-1 {
        fill: #000;
      }

      .cls-1, .cls-2 {
        stroke-width: 0px;
      }

      .cls-2 {
        fill: #fff;
      }
    </style>
  </defs>
  <g>
    <path class="cls-1" d="M1152.46,114.94c-3.74-.68-7.5-1.28-11.22-2.06-24.47-5.12-40.98-24.57-42.53-49.5-.71-11.33.37-22.24,5.12-32.63,7.47-16.34,20.1-26.38,37.71-29.48,17.74-3.12,34.57-.84,48.92,11.21,10.26,8.63,16.03,19.94,18.07,33.01,2.71,17.4.26,33.87-10.63,48.31-9.04,11.98-21.39,18.09-36.13,19.82-2.12.25-4.2.87-6.3,1.31h-3ZM1119.62,57.4c.5,6.11.84,12.25,1.57,18.34.35,2.94,1.27,5.85,2.24,8.67,4.81,13.91,15.3,21.57,29.59,21.75,14.16.18,25.68-7.15,30.31-20.82,6.35-18.72,6.97-37.85.52-56.75-4.57-13.4-14.52-20.33-28.59-20.86-13.67-.52-24.81,6.58-30.34,19.4-4.17,9.66-5.49,19.8-5.3,30.28Z"/>
    <path class="cls-1" d="M811.32,34.12c-2.84,4.79-5.69,9.58-8.53,14.38-8.58,14.45-17.14,28.91-25.74,43.34-3.52,5.9-6.03,6.06-9.57.17-10.55-17.54-20.88-35.19-31.32-52.79-.8-1.34-1.74-2.59-3.69-3.57-.11,1.57-.35,3.14-.33,4.7.33,20.81.7,41.62,1.06,62.43,0,.33.02.67.04,1,.61,8.21-1.65,10.24-9.79,8.23-1.12-.28-2.43-2.68-2.42-4.1.03-6.14.78-12.28.8-18.43.1-26.66.02-53.32.08-79.99,0-2.81-1.04-6.32,3.39-7.15,4.42-.83,8.47-2.11,11.64,3.27,11.38,19.36,23.16,38.49,34.84,57.68,1.6,2.63,3.43,5.12,5.78,8.6,4.9-8.12,9.41-15.22,13.56-22.54,8.19-14.47,16.18-29.06,24.25-43.61,1.33-2.41,12.2-5.78,14.2-4,1.09.97,1.47,3.2,1.48,4.86.1,20.33-.06,40.66.1,60.99.1,12.98.68,25.95.91,38.93.1,5.72-.65,6.15-6.49,5.41-2.46-.31-5.05-.58-7.46-.16-4.6.8-5.37-1.37-5.32-5.28.16-12.66.09-25.33.09-37.99,0-11.3,0-22.59,0-33.89-.53-.16-1.05-.33-1.58-.49Z"/>
    <path class="cls-1" d="M580.43,30.04c-.1,1.77-.28,3.53-.28,5.3,0,19.82-.04,39.63.06,59.45.02,4.14.62,8.27.9,12.42.23,3.51-.92,5.07-4.96,4.66-8.23-.85-8.3-.61-8.22-8.85.28-31.12.55-62.25,1-93.37.03-2.34,1.25-6.51,2.35-6.66,4.07-.56,8.69-3.5,12.44,1.26,5.04,6.4,10.32,12.6,15.48,18.9,14.33,17.48,28.66,34.97,42.96,52.48,1.34,1.64,2.44,3.47,3.66,5.21l1.81-1.1c.1-1.89.29-3.78.28-5.67-.12-22.64-.31-45.28-.27-67.93,0-1.24,1.61-2.88,2.89-3.61,1.18-.68,2.98-.16,4.39-.57,3.88-1.11,5.26.56,5.24,4.22-.04,6.83.03,13.66-.04,20.48-.26,25.96-.5,51.92-.9,77.88-.04,2.41-.41,5.82-1.96,6.99-2.72,2.04-11.07-.23-12.92-2.59-20.01-25.5-40.01-51.01-60.03-76.51-.78-.99-1.71-1.87-2.57-2.8-.43.14-.86.28-1.29.42Z"/>
    <path class="cls-1" d="M1238.42,29.99c-.12,1.58-.35,3.16-.35,4.74,0,21.16-.02,42.33.07,63.49.01,3.14.64,6.28.84,9.43.19,3.02-.81,4.53-4.37,4.25-8.8-.69-8.85-.52-8.77-9.56.27-30.81.52-61.63.98-92.44.04-2.46,1.31-6.76,2.6-6.99,4.18-.76,8.91-3.22,12.75,1.84,6.13,8.08,12.7,15.82,19.15,23.66,13.54,16.44,27.12,32.83,40.67,49.26.73.89,1.25,1.94,1.87,2.92.49-.21.97-.42,1.46-.63.18-1.51.5-3.02.5-4.53.01-21-.02-41.99-.04-62.99,0-.67-.02-1.33-.06-2-.41-7.3-.35-7.01,6.68-8.46,4.52-.93,5.73.68,5.68,4.77-.35,33.48-.65,66.96-.9,100.44-.02,3.27-1.07,4.11-4.57,4.7-7.07,1.2-10.35-2.59-14.07-7.4-18.71-24.22-37.67-48.25-56.54-72.36-.7-.9-1.3-1.88-1.95-2.83-.54.23-1.08.46-1.62.69Z"/>
    <path class="cls-1" d="M149.65,2.19c11.33,0,22.66.25,33.97-.12,4.8-.15,4.53,2.47,4.59,5.64.06,3.23-.33,5.22-4.59,5.13-15.82-.33-31.64-.1-47.46-.36-4.52-.07-6.19,1.37-6.04,5.98.29,8.65.2,17.32.04,25.98-.07,3.7,1.43,4.97,5.02,4.93,14.16-.16,28.32.06,42.47-.29,4.19-.1,5.67.94,5.62,5.19-.06,4.32-2.03,5.41-5.91,5.29-13.8-.42-27.6-.57-41.4-1.04-4.27-.14-5.94,1.26-5.85,5.7.24,10.99.16,21.98.04,32.98-.04,3.5,1.04,5.26,4.83,5.14,17.61-.59,35.23-1,52.84-1.66,3.06-.11,4.27.65,4.1,3.84-.44,8.02-.36,8.13-8.85,8-16.14-.24-32.27-.72-48.4-.86-5.97-.05-11.94.71-17.92.84-6.19.13-6.82-.56-6.75-6.92.28-26.79.69-53.58.9-80.38.04-5.47-.74-10.94-.87-16.42-.14-5.96.48-6.44,6.64-6.45,10.99-.02,21.99,0,32.98,0,0-.05,0-.09,0-.14Z"/>
    <path class="cls-1" d="M299.94,111.62c-5.05,0-9.15-.8-12.79.16-9.5,2.5-13.86-2.2-18.11-9.85-5.88-10.58-13.11-20.42-19.79-30.55-.98-1.49-2.15-2.85-3.81-5.02-4.33,5.84-8.35,11.04-12.11,16.42-5.82,8.31-11.54,16.69-17.14,25.15-2.11,3.2-4.19,5.14-8.52,4.02-2.9-.75-6.14-.14-10.45-.14,2.83-3.75,5.16-6.85,7.51-9.93,10.49-13.74,20.91-27.53,31.55-41.15,2.09-2.68,1.67-4.56-.01-7.02-10.17-14.82-20.29-29.67-30.35-44.57-1.14-1.68-1.74-3.73-2.59-5.61,1.87-.39,3.73-.87,5.61-1.16,2.95-.45,6.07-.34,8.86-1.26,4.38-1.43,6.39.77,8.4,4.02,6.54,10.62,13.21,21.16,19.86,31.71.94,1.49,2.09,2.86,3.58,4.87,1.65-1.98,3.04-3.34,4.08-4.93,6.3-9.6,12.68-19.15,18.69-28.93,2.33-3.79,4.85-5.94,9.54-5.58,3.2.24,6.47-.47,11.33-.89-3.98,5.42-7.13,9.73-10.31,14.02-8.01,10.82-16,21.67-24.09,32.44-1.87,2.5-1.86,4.42.07,7.04,12.8,17.41,25.43,34.96,38.1,52.46.84,1.16,1.6,2.38,2.88,4.3Z"/>
    <path class="cls-1" d="M452.17,111.71c.81-2.15,1.19-3.55,1.84-4.82,16.34-32.08,29.68-65.44,41.78-99.29,2.22-6.21,7.08-5.43,11.26-5.75,1.62-.12,4.23,3.14,5.19,5.38,14.15,33.02,28.09,66.13,42.12,99.2,2.2,5.19,1.85,5.67-3.62,5.4-4.14-.2-8.37-.33-12.45.24-3.43.48-4.77-.65-5.79-3.71-2.52-7.57-5.42-15.02-8.01-22.56-1.09-3.16-3.02-4.32-6.34-4.28-12.16.14-24.32.13-36.48,0-3.46-.04-5.54.98-6.71,4.46-2.43,7.25-5.32,14.34-7.79,21.58-1.12,3.27-2.47,5.15-6.42,4.26-2.48-.56-5.19-.1-8.55-.1ZM481.02,71.91h37.84c-6.24-15.86-12.18-30.95-18.12-46.04l-1.72.15c-5.9,15.04-11.8,30.09-18,45.89Z"/>
    <path class="cls-1" d="M843.31,111.69c.97-2.19,1.63-3.65,2.26-5.13,13.61-32.15,27.31-64.27,40.71-96.51,1.95-4.7,3.78-7.79,9.57-8.24,3.97-.31,5.79.5,7.23,3.97,11.56,27.79,23.18,55.56,34.86,83.3,2.51,5.97,5.37,11.8,7.98,17.73,1.87,4.26,1,5.28-3.59,5.07-4.15-.19-8.37-.45-12.46.09-3.63.48-5.14-.83-6.2-4.01-2.36-7.1-5.03-14.1-7.45-21.18-1.31-3.83-3.6-5.39-7.81-5.3-11.65.26-23.32.21-34.98.02-3.9-.06-6.15,1.19-7.43,5-2.37,7.09-5.28,14.01-7.65,21.1-1.07,3.2-2.49,4.74-6.09,4.17-2.57-.41-5.26-.08-8.98-.08ZM910.23,71.98c-6.32-16.03-12.26-31.1-18.2-46.16-.59.09-1.18.18-1.76.27-5.88,15.06-11.76,30.11-17.92,45.89h37.89Z"/>
    <path class="cls-1" d="M400.31,12.56c-11.13,0-21.6.15-32.06-.07-4.36-.09-6.2,1.1-6.17,5.86.21,26.15.09,52.29.19,78.44.01,3.64.68,7.27.84,10.92.17,3.63-1.54,5.03-5.3,4.54-3.43-.45-7.04-.81-10.4-.2-4.69.85-5.57-1.23-5.52-5.11.1-7.66.06-15.32.06-22.98,0-21.65-.13-43.3.1-64.95.05-5.01-1.44-6.76-6.52-6.55-9.14.39-18.32.02-27.47.34-4.67.16-4.05-2.79-4.1-5.6-.05-2.8-.14-5.15,4.06-5.14,29.8.07,59.6-.11,89.4-.05.96,0,2.56,1.64,2.74,2.71.42,2.4.13,4.92.13,7.83Z"/>
    <path class="cls-1" d="M1047.86,2.33v10.14c-1.09.07-2.34.21-3.59.21-9.82-.02-19.64-.03-29.47-.13-2.93-.03-4.73.71-4.72,4.15.1,27.8.08,55.61.18,83.41,0,2.81.68,5.61.72,8.42.04,2.92-1.69,3.98-4.58,3.83-4.11-.21-8.28.2-12.35-.31-1.51-.19-3.11-2.03-4.07-3.5-.61-.94-.13-2.59-.13-3.92,0-28.47.03-56.94.02-85.41,0-6.61-.05-6.66-6.68-6.66-8.99,0-17.99-.14-26.96.24-4.5.19-4.34-2.36-4.35-5.35,0-3.02-.1-5.42,4.35-5.38,26.64.24,53.27.2,79.91.25,3.78,0,7.55,0,11.73,0Z"/>
    <path class="cls-1" d="M49.1,2.14c14.66,0,29.32.06,43.97-.06,2.78-.02,4.23.45,3.49,3.6-.22.93-.16,2.03.1,2.95,1.03,3.68-.73,4.22-3.93,4.15-9.66-.22-19.32-.04-28.98-.28-4.05-.1-5.6,1.32-5.57,5.46.14,24.82.06,49.64.17,74.46.02,5.14.61,10.28.82,15.43.16,3.74-1.66,4.87-5.37,4.39-3.59-.46-7.32-.57-10.9-.1-3.71.48-5-.95-4.89-4.28.24-7.31.75-14.62.8-21.93.13-22.32-.04-44.65.2-66.97.05-5.1-1.74-6.68-6.7-6.49-9.32.36-18.65.09-27.98.32-2.93.07-4.97-.65-4.09-3.74C.95,6.58-2.39,1.91,4.13,2.04c14.98.31,29.98.1,44.97.09Z"/>
    <path class="cls-1" d="M1062.71,96.68c0-18.97.1-37.94-.04-56.91-.07-10.14-.61-20.28-.81-30.43-.13-6.55.31-6.84,6.61-7.02,2.65-.08,5.3-.35,7.92-.75,3.76-.59,5.86.6,5.68,4.68-.26,5.98-.7,11.95-.74,17.93-.11,20.82-.15,41.64-.06,62.46.03,6.97.54,13.95.79,20.92.13,3.53-1.07,5.17-5.1,4.55-3.39-.53-6.98-.37-10.41.05-3.38.42-4.7-.84-4.72-3.98-.02-3.83,0-7.66,0-11.49.29,0,.59,0,.88,0Z"/>
    <path class="cls-1" d="M681.77,97.16c0-19.14.1-38.27-.04-57.41-.07-10.31-.43-20.62-.9-30.92-.22-4.65,1.28-6.85,6.22-6.55,2.78.17,5.63-.29,8.41-.72,3.78-.57,5.83.64,5.66,4.71-.3,7.14-.78,14.28-.83,21.43-.12,18.82-.14,37.64-.02,56.46.05,7.64.54,15.28.87,22.92.17,4.04-1.12,5.8-5.64,4.94-3.19-.61-6.65-.3-9.91.14-3.39.45-4.68-.87-4.7-4-.02-3.66,0-7.33,0-10.99.3,0,.59,0,.89,0Z"/>
    <path class="cls-2" d="M1119.62,57.4c-.19-10.48,1.13-20.62,5.3-30.28,5.53-12.82,16.67-19.91,30.34-19.4,14.07.53,24.02,7.46,28.59,20.86,6.45,18.9,5.83,38.03-.52,56.75-4.64,13.67-16.15,21-30.31,20.82-14.29-.18-24.78-7.84-29.59-21.75-.97-2.82-1.89-5.73-2.24-8.67-.73-6.09-1.07-12.22-1.57-18.34Z"/>
    <path class="cls-2" d="M481.02,71.91c6.2-15.8,12.1-30.84,18-45.89l1.72-.15c5.94,15.09,11.88,30.18,18.12,46.04h-37.84Z"/>
    <path class="cls-2" d="M910.23,71.98h-37.89c6.16-15.78,12.04-30.83,17.92-45.89.59-.09,1.18-.18,1.76-.27,5.94,15.07,11.88,30.14,18.2,46.16Z"/>
  </g>
</svg>