<?xml version="1.0" encoding="UTF-8"?>
<svg id="logo" data-name="name" xmlns="http://www.w3.org/2000/svg" viewBox="0 0 688.24 60.12">
  <defs>
    <style>
      .cls-1 {
        fill: #231815;
        stroke-width: 0px;
      }
    </style>
  </defs>
  <g id="ta">
    <g>
      <path class="cls-1" d="M50.27,7.38h-.14c-3.66-.42-11.25-.56-15.61-.56h-3.73v34.24c0,6.68.28,11.88.49,17.23,0,.42-.07.84-.63.84h-.14c-1.48-.14-3.38-.28-5.2-.28s-3.52.14-4.78.35h-.21c-.56,0-.63-.49-.63-.91.14-4.71.42-10.55.42-17.37V6.82h-3.66c-4.43,0-11.95.14-15.61.56h-.14c-.49,0-.7-.28-.7-.7v-.21c.14-1.34.21-1.97.21-2.53s-.07-1.05-.21-2.18v-.14c0-.49.21-.63.7-.63h.28c2.88.28,12.02.42,16.88.42h15.26c4.78,0,13.92-.14,16.88-.42h.21c.49,0,.77.14.77.63v.14c-.14,1.12-.28,1.62-.28,2.18s.14,1.2.28,2.53c0,.56-.21.91-.7.91Z"/>
      <path class="cls-1" d="M100.55,58.43c0,.49-.28.7-.77.7l-18.14-.28h-13.43l-10.05.28c-.63,0-.84-.35-.84-.77.07-4.57.56-10.69.56-17.3v-22.78c0-6.26-.42-12.02-.56-16.31,0-.35.21-.84.84-.84l9.49.35h12.45c4.85,0,14.7-.21,17.65-.49h.21c.49,0,.7.14.7.56v.28c-.21.98-.28,1.69-.28,2.39,0,.63.07,1.34.28,2.32v.21c0,.42-.21.63-.63.63h-.14c-4.22-.35-12.02-.49-16.38-.49h-13.29v18.98h10.12c3.94,0,13.92-.21,16.73-.35.56,0,.91.21.91.7v.21c-.14.56-.21,1.2-.21,1.97,0,.7.07,1.41.21,2.18v.21c0,.49-.35.63-.91.63-2.81-.14-13.43-.35-16.73-.35h-10.12v22.36h13.29c2.81,0,15.26-.42,18.07-.91.14,0,.28-.07.35-.07.42,0,.63.28.63.63v.21c-.14,1.27-.21,1.9-.21,2.46,0,.63.07,1.27.21,2.46v.21Z"/>
      <path class="cls-1" d="M156.87,58.43c0,.28-.28.63-.84.63h-.14c-1.9-.14-3.8-.21-5.55-.21-2.25,0-4.29.14-5.91.35h-.14c-.21,0-.49-.14-.63-.35-4.15-7.03-9.77-15.82-15.4-23.84-2.46,3.45-8.02,11.11-8.02,11.11-1.69,2.32-5.7,8.51-8.65,12.73-.14.21-.35.42-.7.42h-.14c-1.2-.28-2.53-.42-3.87-.42-.98,0-1.97.07-2.74.21-.14,0-.28.07-.35.07-.56,0-.84-.28-.84-.63,0-.14,0-.28.14-.42,10.76-13.78,17.72-22.85,21.38-27.84-6.26-9.56-12.59-18.84-18.84-27.7-.07-.14-.14-.28-.14-.42,0-.35.28-.7.84-.7h1.05c2.88,0,5.91-.77,8.65-1.12h.14c.35,0,.7.14.77.35,3.87,6.12,9.07,14.7,13.5,21.52,5.06-7.31,9.63-14.06,13.22-20.39.21-.21.42-.42.77-.42h.14c.49.07,1.05.14,1.62.14,1.97,0,4.29-.49,6.12-.84.14,0,.28-.07.42-.07.42,0,.7.21.7.49,0,.21-.14.42-.42.77-.98,1.27-5.48,6.82-18.77,25.24,7.24,10.41,15.33,21.23,22.5,30.94.07.14.14.28.14.42Z"/>
      <path class="cls-1" d="M208.76,7.38h-.14c-3.66-.42-11.25-.56-15.61-.56h-3.73v34.24c0,6.68.28,11.88.49,17.23,0,.42-.07.84-.63.84h-.14c-1.48-.14-3.38-.28-5.2-.28s-3.52.14-4.78.35h-.21c-.56,0-.63-.49-.63-.91.14-4.71.42-10.55.42-17.37V6.82h-3.66c-4.43,0-11.95.14-15.61.56h-.14c-.49,0-.7-.28-.7-.7v-.21c.14-1.34.21-1.97.21-2.53s-.07-1.05-.21-2.18v-.14c0-.49.21-.63.7-.63h.28c2.88.28,12.02.42,16.88.42h15.26c4.78,0,13.92-.14,16.88-.42h.21c.49,0,.77.14.77.63v.14c-.14,1.12-.28,1.62-.28,2.18s.14,1.2.28,2.53c0,.56-.21.91-.7.91Z"/>
      <path class="cls-1" d="M290.68,58.22c0,.35-.28.84-.91.84-1.97-.14-3.73-.21-5.34-.21-1.97,0-3.73.07-5.34.28-.49,0-.63-.35-.77-.63-2.25-6.82-2.53-8.09-5.55-15.47h-23.7c-2.88,7.1-3.94,9.98-5.7,15.47-.21.35-.35.63-.7.63h-.14c-1.05-.21-2.25-.35-3.38-.35-1.05,0-1.97.14-2.67.28h-.14c-.35,0-.56-.42-.56-.84,0-.07,0-.21.07-.28,7.66-14.06,18.07-40.15,23.77-56.04.14-.21.21-.49.7-.49,2.32,0,3.66-.35,5.34-.77h.28c.42,0,.49.28.63.56,5.55,13.78,15.96,39.16,24.05,56.74,0,.07.07.14.07.28ZM261.01,13.15l-9.77,24.89h19.55l-9.77-24.89Z"/>
      <path class="cls-1" d="M344.54,18.21v39.8c0,.49-.07,1.12-.84,1.12-.14,0-.28,0-.42-.07-.49-.14-1.34-.28-2.25-.28-.7,0-1.48.07-2.11.28-.35.07-.63.14-.84.14-.35,0-.56-.14-.84-.56l-34.24-43.8v26.16c0,6.82.35,12.09.49,17.37,0,.35-.35.77-.84.77h-.07c-.77-.21-1.83-.28-2.95-.28-1.05,0-2.04.07-2.74.28h-.14c-.35,0-.63-.35-.63-.7v-.07c.21-4.92.49-10.55.49-17.37V2.32c0-.42,0-.91.63-.91h.63c1.12,0,3.02-.14,4.92-.7h.21c.49,0,.84.35,1.12.77l34.03,41.41v-24.68c0-6.33-.28-11.53-.42-16.17,0-.28.21-.77.7-.77h.14c.28.07.56.07.91.07,1.55,0,3.45-.49,4.71-.7h.07c.42,0,.7.42.7.77v.07c-.14,4.71-.42,10.41-.42,16.73Z"/>
      <path class="cls-1" d="M365.78,59.2h-.21c-1.34-.21-3.16-.35-5.06-.35-1.76,0-3.45.14-4.71.35h-.21c-.49,0-.56-.49-.56-.91.07-5.77.49-10.55.49-17.3v-22.78c0-6.33-.28-10.76-.49-15.96,0-.42,0-.91.63-.91h.14c.63.07,1.27.07,1.97.07,2.67,0,5.77-.42,7.73-.77h.21c.49,0,.56.49.56.84-.14,5.06-.42,10.41-.42,16.73v22.78c0,6.75.35,11.11.42,17.3,0,.42,0,.91-.49.91Z"/>
      <path class="cls-1" d="M433.84,59.2h-.28c-1.2-.21-3.16-.35-4.99-.35-1.55,0-3.02.07-3.94.35-.07,0-.14.07-.14.07-.42,0-.56-.63-.56-.98.14-7.38.42-11.25.42-17.72v-23.7c-2.81,4.99-12.09,20.67-19.55,33.05-.35.63-.98.91-1.62.91-.84,0-1.69-.49-1.9-.91l-18.98-32.27c.21,5.91.35,22.57.35,22.57.14,6.96.35,13.57.63,18,0,.84-.21.98-.56.98h-.21c-1.05-.21-1.97-.28-2.88-.28-.84,0-1.69.07-2.6.28h-.35c-.42,0-.63-.21-.63-.84v-.28c.35-4.64.7-14.98.7-17.79v-21.66c0-4.01-.14-12.09-.21-16.38,0-.49,0-.98.77-.98h.56c.91,0,3.02-.28,4.5-.63.14-.07.28-.07.42-.07.49,0,.63.35.91.77l22.08,36.35c3.59-6.05,16.24-26.93,19.97-35.3.21-.56.21-1.12,1.27-1.12,2.53,0,4.01-.35,5.84-.7.14,0,.28-.07.35-.07.77,0,.91.63.91.98v2.25c0,3.73-.07,7.66-.07,12.09v2.88l.07,21.8c0,6.82.49,13.08.56,18,0,.49-.35.7-.84.7Z"/>
      <path class="cls-1" d="M494.87,58.22c0,.35-.28.84-.91.84-1.97-.14-3.73-.21-5.34-.21-1.97,0-3.73.07-5.34.28-.49,0-.63-.35-.77-.63-2.25-6.82-2.53-8.09-5.55-15.47h-23.7c-2.88,7.1-3.94,9.98-5.7,15.47-.21.35-.35.63-.7.63h-.14c-1.05-.21-2.25-.35-3.38-.35-1.05,0-1.97.14-2.67.28h-.14c-.35,0-.56-.42-.56-.84,0-.07,0-.21.07-.28,7.66-14.06,18.07-40.15,23.77-56.04.14-.21.21-.49.7-.49,2.32,0,3.66-.35,5.34-.77h.28c.42,0,.49.28.63.56,5.55,13.78,15.96,39.16,24.05,56.74,0,.07.07.14.07.28ZM465.2,13.15l-9.77,24.89h19.55l-9.77-24.89Z"/>
      <path class="cls-1" d="M546.84,7.38h-.14c-3.66-.42-11.25-.56-15.61-.56h-3.73v34.24c0,6.68.28,11.88.49,17.23,0,.42-.07.84-.63.84h-.14c-1.48-.14-3.38-.28-5.2-.28s-3.52.14-4.78.35h-.21c-.56,0-.63-.49-.63-.91.14-4.71.42-10.55.42-17.37V6.82h-3.66c-4.43,0-11.95.14-15.61.56h-.14c-.49,0-.7-.28-.7-.7v-.21c.14-1.34.21-1.97.21-2.53s-.07-1.05-.21-2.18v-.14c0-.49.21-.63.7-.63h.28c2.88.28,12.02.42,16.88.42h15.26c4.78,0,13.92-.14,16.88-.42h.21c.49,0,.77.14.77.63v.14c-.14,1.12-.28,1.62-.28,2.18s.14,1.2.28,2.53c0,.56-.21.91-.7.91Z"/>
      <path class="cls-1" d="M564.56,59.2h-.21c-1.34-.21-3.16-.35-5.06-.35-1.76,0-3.45.14-4.71.35h-.21c-.49,0-.56-.49-.56-.91.07-5.77.49-10.55.49-17.3v-22.78c0-6.33-.28-10.76-.49-15.96,0-.42,0-.91.63-.91h.14c.63.07,1.27.07,1.97.07,2.67,0,5.77-.42,7.73-.77h.21c.49,0,.56.49.56.84-.14,5.06-.42,10.41-.42,16.73v22.78c0,6.75.35,11.11.42,17.3,0,.42,0,.91-.49.91Z"/>
      <path class="cls-1" d="M602.24,60.12c-18.35,0-29.25-13.43-29.25-30.02s10.9-30.09,29.25-30.09,29.32,13.43,29.32,30.09-10.9,30.02-29.32,30.02ZM619.89,29.11c0-15.33-5.48-24.47-17.44-24.47-9.35,0-17.86,5.84-17.86,25.95,0,15.47,5.41,24.75,17.37,24.75,15.05,0,17.93-14.41,17.93-26.23Z"/>
      <path class="cls-1" d="M687.82,18.21v39.8c0,.49-.07,1.12-.84,1.12-.14,0-.28,0-.42-.07-.49-.14-1.34-.28-2.25-.28-.7,0-1.48.07-2.11.28-.35.07-.63.14-.84.14-.35,0-.56-.14-.84-.56l-34.24-43.8v26.16c0,6.82.35,12.09.49,17.37,0,.35-.35.77-.84.77h-.07c-.77-.21-1.83-.28-2.95-.28-1.05,0-2.04.07-2.74.28h-.14c-.35,0-.63-.35-.63-.7v-.07c.21-4.92.49-10.55.49-17.37V2.32c0-.42,0-.91.63-.91h.63c1.12,0,3.02-.14,4.92-.7h.21c.49,0,.84.35,1.12.77l34.03,41.41v-24.68c0-6.33-.28-11.53-.42-16.17,0-.28.21-.77.7-.77h.14c.28.07.56.07.91.07,1.55,0,3.45-.49,4.71-.7h.07c.42,0,.7.42.7.77v.07c-.14,4.71-.42,10.41-.42,16.73Z"/>
    </g>
  </g>
</svg>