<?xml version="1.0" encoding="UTF-8"?>
<svg id="_レイヤー_2" data-name="レイヤー 2" xmlns="http://www.w3.org/2000/svg" viewBox="0 0 527.67 399.05">
  <defs>
    <style>
      .cls-1 {
        fill: #1d295a;
        stroke-width: 0px;
      }
    </style>
  </defs>
  <g id="_レイヤー_2-2" data-name="レイヤー 2">
    <path class="cls-1" d="M527.67,97.96l-7.9-97.96-94.91,25.5,32.23,22.72c-9.83,4.91-18.14,6.6-27.76,8.56-16.99,3.46-36.25,7.38-63.07,27.9-26.82,20.52-35.64,38.08-43.43,53.57-6.8,13.53-12.17,24.22-31.13,38.72-18.96,14.51-30.68,16.89-45.52,19.92-16.99,3.46-36.25,7.38-63.07,27.9-26.82,20.52-35.64,38.08-43.42,53.57-6.8,13.53-12.16,24.21-31.13,38.72-18.96,14.51-30.68,16.89-45.52,19.91-16.99,3.46-36.25,7.38-63.06,27.9l26.13,34.15c18.96-14.51,30.68-16.89,45.52-19.91,16.99-3.46,36.25-7.38,63.07-27.9,26.82-20.52,35.64-38.08,43.42-53.57,6.8-13.53,12.16-24.21,31.13-38.72,18.96-14.51,30.68-16.89,45.52-19.92,16.99-3.46,36.25-7.38,63.07-27.9,26.82-20.52,35.64-38.08,43.43-53.57,6.8-13.53,12.17-24.22,31.13-38.72,18.96-14.51,30.68-16.9,45.52-19.92,15.77-3.21,33.5-6.83,57.42-23.75l32.34,22.79Z"/>
  </g>
</svg>