<?xml version="1.0" encoding="UTF-8"?>
<svg id="logo" xmlns="http://www.w3.org/2000/svg" viewBox="0 0 351.47 130.13">
  <defs>
    <style>
      .cls-1 {
        fill: #fff;
        stroke-width: 0px;
      }
    </style>
  </defs>
  <g id="logo-2" data-name="name2">
    <g>
      <path class="cls-1" d="M34.5,24.68c.2.11.35.23.45.36.11.14.17.32.19.54.02.23,0,.52-.03.89-.04.36-.17,1.08-.39,2.16,3.62-1.58,6.08-2.62,7.4-3.13,1.31-.51,2.13-.79,2.45-.85.32-.06.57-.07.76-.02.19.04.38.15.57.32.19.17.29.32.3.44.01.12-.01.23-.07.32-.05.09-.2.18-.43.27s-.96.35-2.19.77c-1.23.42-2.16.75-2.81,1.01-.64.25-1.41.57-2.31.96-.9.39-1.61.71-2.13.95-.52.24-1.18.54-1.98.9-.22.85-.45,1.61-.69,2.28-.24.67-.45,1.21-.62,1.62.15.28.26.71.33,1.29.07.58.32,1.24.73,1.97,1.31-.74,2.92-1.54,4.86-2.43,1.93-.88,3.3-1.26,4.1-1.13.8.13,1.37.39,1.72.78.35.39.52,1.1.51,2.13,0,1.02-.13,1.88-.38,2.56-.25.69-.22,1.02.1,1.02.32,0,.53.12.62.38s-.51.7-1.81,1.31c-1.31.61-2.81,1.36-4.5,2.24-1.7.88-2.57,1.26-2.62,1.15-.05-.12-.23-.15-.52-.09-.3.06-.29.3.02.74s.53.72.67.86.1.26-.12.38-.53.12-.93,0c-.41-.12-1.02-1.14-1.84-3.05-.82-1.92-1.48-4.53-1.98-7.84-.12.26-.44.89-.96,1.88-.51,1-.99,1.82-1.42,2.47s-1,1.41-1.7,2.29c-.7.88-1.26,1.53-1.67,1.96-.41.43-.7.7-.88.81-.18.11-.33.18-.46.21-.13.03-.26.04-.37.02-.12-.02-.21-.06-.28-.13-.07-.07-.12-.15-.15-.25-.03-.1-.03-.22,0-.37.03-.15.42-.69,1.18-1.64.76-.94,1.45-1.86,2.08-2.76.63-.89,1.2-1.76,1.72-2.6.52-.84.97-1.65,1.36-2.43.39-.78.7-1.5.95-2.15.24-.65.51-1.48.79-2.48-.84.41-1.93.93-3.29,1.58-1.36.65-2.19,1.03-2.51,1.15s-.56.2-.73.23-.41-.11-.75-.43c-.2-.17-.31-.29-.31-.38,0-.08.02-.17.08-.27.06-.1.18-.21.34-.33s.38-.26.63-.41.56-.32.91-.48c.35-.16,2.42-1.08,6.22-2.73.22-.81.4-1.5.53-2.09.13-.59.22-1.16.26-1.7.04-.54.06-.86.09-.97.02-.11.07-.18.15-.21.08-.04.18-.04.29,0,.12.03.26.09.44.18ZM40.47,36.3c-2.54,1.34-4.58,2.33-6.12,2.99.3,1.73.67,3.46,1.11,5.18,1.51-.48,2.96-1.08,4.33-1.78,1.37-.7,2.18-1.24,2.43-1.61.25-.37.53-.88.85-1.52.32-.64.5-1.32.54-2.05.04-.73.03-1.25-.03-1.57-.06-.32-.35-.46-.88-.45-.53.01-1.27.28-2.22.8Z"/>
      <path class="cls-1" d="M58.92,45.86c2.01-4.54,3.36-8.68,4.07-12.4.7-3.73.94-5.9.71-6.52-.23-.62-.1-.96.39-1.03.49-.06.96.4,1.4,1.4,1.63-.8,3.07-1.56,4.33-2.26,1.26-.7,2.07-1.32,2.45-1.86.38-.54.68-1.02.9-1.44s.26-.62.12-.58c-3.32,1.2-5.72,2.2-7.21,3-1.49.8-2.48,1.25-2.99,1.35-.51.1-.94,0-1.3-.27-.29-.29,1.24-1.22,4.59-2.81,3.36-1.59,5.44-2.49,6.25-2.72.81-.23,1.44-.28,1.9-.15.46.13.67.3.65.53-.02.23-.16.79-.41,1.7-.25.9-.69,1.68-1.32,2.33-.63.66-1.13,1.09-1.5,1.31-.38.22-1.19.67-2.45,1.36-1.26.69-2.54,1.41-3.84,2.17-.54,2.86-1.08,5.52-1.64,7.97-.92,3.19-1.8,5.62-2.63,7.31-.83,1.69-1.53,2.71-2.1,3.09-.57.37-.87.37-.9,0-.03-.37.14-.86.52-1.47ZM66.25,18.7l3.17-1.08c.37-.01.71.13,1.02.44.31.3.16.56-.43.77-.59.21-1.36.45-2.29.73-.93.28-1.84.45-2.74.5-.9.06-1.4.02-1.5-.1-.1-.13-.21-.29-.32-.5-.11-.21.3-.38,1.23-.51.93-.13,1.55-.21,1.86-.24ZM74.51,46.27l.45-.16c-.27-3.04-.57-6-.9-8.89-1.48,1.14-2.58,2.03-3.32,2.65-.73.62-1.25,1-1.53,1.13-.29.13-.56,0-.8-.4h.03c-.19,2.11-.26,3.74-.22,4.91.04,1.17-.07,1.76-.33,1.78-.26.02-.58-.22-.98-.72-.4-.5-.52-1.11-.38-1.81.15-.71.25-2.12.3-4.25.05-2.13-.01-4.16-.19-6.12-.18-1.95-.32-3.16-.43-3.64-.1-.48-.29-.8-.57-.96-.27-.16-.19-.29.25-.38.44-.09.78-.06,1.04.1.25.16.84-.14,1.76-.88.92-.74,1.97-1.1,3.16-1.07,1.19.03,1.94.63,2.27,1.79.33,1.16.67,2.53,1.03,4.1.36,1.57.67,3.88.93,6.9s.44,5.07.52,6.12c.08,1.05-.06,1.55-.41,1.51-.36-.04-.67-.19-.96-.43-.28-.25-.52-.67-.72-1.27ZM69.35,29.95c-1.03.79-1.45,1.67-1.26,2.62.19.96.29,1.86.3,2.71,1.31-1.42,2.98-2.17,5.03-2.27-.25-1.45-.53-2.46-.83-3.05-.3-.58-.6-.87-.9-.85-.3.02-.71.12-1.22.31-.51.19-.89.37-1.12.53ZM73.8,35.68l-.11-1.29c-1.19.35-2.04.7-2.54,1.03-.5.33-.93.7-1.29,1.09-.36.39-.8.65-1.33.75-.05.83-.08,1.56-.09,2.18,1.43-1.22,3.22-2.47,5.37-3.76Z"/>
      <path class="cls-1" d="M94.11,18.13c.37-.07.66-.09.88-.04.22.04.42.12.6.24s.4.33.66.62c.26.3.46.63.6,1,.14.37.24.7.3,1,.07.29.13.78.17,1.46s.28,2.76.69,6.24c.9-.62,1.68-1.11,2.34-1.48.66-.37,1.16-.62,1.5-.77.34-.14.63-.25.86-.31.23-.06.43-.09.58-.08.16,0,.29.06.39.17.1.1.17.24.21.42.04.17.04.34.03.49-.02.16-.08.28-.18.37-.11.09-.33.21-.69.34-.35.13-.91.43-1.68.89-.77.46-1.42.89-1.96,1.27-.54.39-.91.66-1.13.8.34,2.95.53,4.71.55,5.28s.04,1.02.04,1.35c0,.33,0,.55-.02.65.39-.1.89-.22,1.51-.37.62-.15,1.4-.31,2.35-.5.95-.19,1.87-.34,2.77-.48s1.7-.2,2.39-.21c.69,0,1.2,0,1.53.04.32.03.61.1.86.19.25.09.44.18.58.26.14.08.27.21.38.4.11.19.12.36.03.53-.09.16-.22.28-.39.36-.17.08-.55.11-1.13.1-.58,0-1.27,0-2.06.06-.79.05-1.69.13-2.68.25-1,.12-1.98.28-2.95.47s-1.75.39-2.36.58c-.61.19-1.04.34-1.3.44-.04.04-.09.07-.15.08-.06,0-.12.01-.18.02-.54.19-1.18.43-1.9.71-.72.28-1.5.6-2.33.95-.83.35-1.81.8-2.93,1.36-1.12.55-1.83.87-2.11.96-.28.09-.51.11-.68.07-.17-.04-.32-.13-.46-.29-.34-.34-.46-.59-.36-.73.1-.14.28-.3.55-.48s.62-.38,1.05-.6,1.43-.7,2.97-1.42c1.54-.72,2.63-1.21,3.25-1.46.62-.25,1.16-.46,1.63-.62-.02-.23-.01-.56.02-1,.03-.44.05-.84.03-1.21s-.08-1.27-.2-2.68c-.12-1.42-.32-3.37-.59-5.85-.27-2.48-.52-4.37-.75-5.68s-.38-2.04-.44-2.21-.23-.42-.48-.73-.39-.54-.42-.68c-.02-.13.04-.31.19-.53Z"/>
      <path class="cls-1" d="M118.29,24.93c-.38-.05-.59-.19-.63-.41-.04-.22-.07-.43-.08-.61,2.31-.68,4.48-1.64,6.53-2.9.45-1.3.72-2.71.81-4.23.27-.19.52-.23.74-.11s.41.36.56.74c.04.49.02.94-.07,1.34-.09.4-.17.82-.23,1.26,1.34-.57,2.56-.71,3.67-.41.61.59,1,1.42,1.15,2.49.16,1.07.16,2.14,0,3.21-.18,1.3-.38,2.35-.59,3.16-.8,3.88-2.41,7.36-4.81,10.45-.94.85-1.67.66-2.2-.55-1.22-2.32-1.53-4.71-.94-7.18.07-.4.18-.65.34-.74.16-.1.29-.1.39,0,.1.09.12.46.05,1.08-.25,2.17.19,4.23,1.32,6.16,3.75-4.8,5.36-10.25,4.83-16.35l-.05-.58c-1.18,0-2.32.37-3.42,1.11-1.11,3.41-2.57,6.81-4.37,10.19-.62.47-1.05.47-1.27.02,1.06-2.64,1.88-4.62,2.47-5.94.59-1.33,1.02-2.43,1.3-3.33-1.8,1.05-3.62,1.76-5.47,2.16ZM137.47,28.25c-.44.2-.68.1-.71-.31,1.18-.79,2.22-1.57,3.12-2.35.45-.56.45-1.14,0-1.74-2.57-1.82-5.08-3.6-7.53-5.33-.46-.31-.6-.66-.4-1.05,1.33.26,2.64.88,3.93,1.86,1.03.82,2.26,1.74,3.71,2.76,1.45,1.02,2.22,2.06,2.31,3.11-1.14,1.71-2.61,2.73-4.43,3.06ZM136.16,12.9c1.04.3,1.73.96,2.06,1.98.33,1.02.71,1.97,1.14,2.87-.14.34-.29.52-.47.52s-.37-.05-.59-.18c-.41-.42-.69-.86-.85-1.32-.16-.46-.31-.84-.46-1.14-.25-.45-.51-.9-.79-1.34-.28-.44-.29-.9-.04-1.38ZM139.01,12.75c.23-.17.5-.2.8-.12.3.09.54.32.71.7.16.44.38.92.64,1.42.26.5.3,1.1.11,1.78-.23.02-.38,0-.45-.04-.08-.04-.16-.15-.26-.3-.82-1.11-1.34-2.25-1.54-3.44Z"/>
      <path class="cls-1" d="M156.96,16.24l.9-3.18c.55-.38,1-.25,1.37.38-1.17,3.89-1.76,6.97-1.76,9.25,0,2.28.06,3.55.18,3.82.12.27.35-.06.71-.98s.68-1.77.98-2.54c.29-.77.63-1.29,1.01-1.56s.61-.18.68.27-.12,1.06-.57,1.82c-.91,2.83-1.57,4.56-1.97,5.17-.83.24-1.45-.22-1.86-1.39-.84-2.22-.72-5.91.34-11.05ZM165.14,37.6c-.28-.56-.2-1.02.22-1.39.99-3.67,1.3-7.53.95-11.59-.35-4.06-.84-6.83-1.44-8.32s-.77-2.28-.49-2.36c.28-.09.59.11.92.6.33.49.64,1.01.91,1.57.8,3.01,1.31,5.61,1.52,7.78.21,2.17.28,4.16.19,5.94-.08,1.79-.42,3.42-1.02,4.9-.6,1.48-.99,2.32-1.16,2.52-.18.2-.38.31-.61.33Z"/>
      <path class="cls-1" d="M188.24,29.49c-1.15.8-2.13,1.2-2.93,1.19-.8-.01-1.38-.33-1.73-.94-.35-.61-.51-1.48-.48-2.6.04-1.12.19-2.16.46-3.11,1.84-4.61,4.97-8.03,9.4-10.26,0-.56.18-.88.57-.95.39-.07.67.1.85.52,2.4-.33,4.22-.23,5.46.3s2.19,1.4,2.84,2.59c.65,1.2.9,2.41.74,3.63-.16,1.23-.5,2.52-1.01,3.88-.51,1.36-1.22,3.43-2.12,6.22-.16.82-.37,1.26-.63,1.31-.27.05-.5.06-.7.03-.2-.04-.23-.46-.1-1.28.94-3.5,1.78-6.13,2.51-7.89.74-1.76.91-3.3.52-4.61-.39-1.31-1.27-2.2-2.61-2.67-1.35-.47-2.88-.46-4.6.05-.37.78-.8,2.15-1.3,4.13-.5,1.98-1.55,4.72-3.15,8.24-.72,1.06-1.38,1.8-1.98,2.22ZM184.83,25.07c-.54,1.85-.44,3.19.32,4.04.8-.07,1.52-.35,2.15-.86.63-.5,1.21-1.16,1.74-1.97,1.59-3.45,2.76-6.93,3.54-10.43-1.9,1.1-3.62,2.58-5.18,4.46-1.04,1.44-1.89,3.02-2.57,4.76Z"/>
      <path class="cls-1" d="M221.11,7.18c.34.16.59.3.74.45.15.14.28.34.39.6s.26.69.42,1.3c.17.61.26,1.13.29,1.58.03.44.03,1.01,0,1.69-.03.69-.13,1.46-.28,2.32-.15.86-.35,1.78-.6,2.75.29.04.61.13.96.29.34.16.71.36,1.08.62.38.26.97.77,1.8,1.53.82.77,1.61,1.46,2.35,2.09.74.63,1.46,1.19,2.15,1.69.7.5,1.53,1,2.5,1.52.97.52,2.06,1.04,3.28,1.56,1.22.52,1.88.87,1.97,1.04.1.17.14.3.11.41-.02.1-.1.17-.25.21-.14.03-.35.03-.62,0-.27-.04-.62-.12-1.05-.25-.43-.13-.93-.31-1.51-.55s-1.19-.51-1.83-.8c-.64-.3-1.26-.62-1.86-.97-.6-.35-1.18-.72-1.73-1.12-.55-.4-1.34-1-2.35-1.8-1.01-.8-1.77-1.44-2.27-1.91-.5-.47-.91-.84-1.25-1.12-.33-.27-.67-.52-1.01-.73-.34-.22-.61-.38-.81-.49-.24.79-.54,1.66-.89,2.62-.35.96-.72,1.88-1.11,2.74-.39.86-.77,1.6-1.14,2.21-.37.61-.8,1.21-1.28,1.79-.48.58-.89,1.04-1.23,1.38-.34.34-.66.6-.94.77-.29.17-.58.29-.89.36-.3.07-.52.1-.65.09s-.21-.03-.26-.07c-.04-.04-.05-.11-.02-.22.03-.11.1-.22.2-.34.1-.12.58-.71,1.43-1.77.85-1.06,1.54-1.97,2.06-2.74.52-.77.98-1.56,1.36-2.37.39-.81.81-1.85,1.28-3.12.47-1.27.77-2.16.9-2.66.13-.5.25-1.06.37-1.68s.21-1.24.3-1.86c.09-.62.16-1.19.21-1.73.05-.53.05-1.04.02-1.54-.03-.49-.13-.99-.29-1.5-.16-.5-.3-.9-.42-1.19-.12-.29-.19-.52-.21-.68-.03-.16-.01-.28.03-.34.05-.07.22-.08.51-.04Z"/>
      <path class="cls-1" d="M248.79,22.02c-.15-.05-.24-.12-.27-.23s0-.22.08-.35c.08-.13.24-.28.46-.45.22-.16,1.04-.57,2.45-1.21,1.41-.64,2.59-1.15,3.55-1.52-.09-1.32-.21-2.58-.33-3.79-.13-1.21-.21-2.03-.25-2.46l-1.4.68c-.84.4-2.12.96-3.87,1.67-.54,1.48-.97,2.27-1.32,2.38-.34.11-.63.14-.86.08-.23-.06-.18-.75.16-2.05.34-1.3.61-2.81.82-4.53.2-1.71.2-3.09-.02-4.13-.21-1.04-.19-1.6.07-1.68.26-.09.6-.03,1.01.16.41.19.7,1.01.87,2.47.17,1.46,0,3.35-.5,5.69,1.58-.88,3.2-1.72,4.85-2.5-.16-1.37-.33-2.66-.49-3.87s-.3-2.18-.4-2.93.36-.9,1.38-.45c.12.44.25.87.38,1.29.13.41.23.78.3,1.11.07.33.12.8.15,1.42.03.62.11,1.53.24,2.74.52-.23,1.58-.69,3.19-1.38,1.61-.69,2.55-.9,2.82-.64.27.27.36.57.27.91s-.46.58-1.1.73c-.64.15-2.3.85-4.97,2.1.05.55.14,1.45.28,2.69.14,1.24.27,2.45.39,3.61,1.65-.6,2.86-1.01,3.63-1.23.77-.22,1.41-.4,1.93-.54s.91-.22,1.19-.26c.28-.04.48,0,.61.08.13.09.23.21.29.35.06.14.04.29-.07.44-.11.15-.28.28-.5.38-.22.1-.71.27-1.46.5-.76.23-1.72.58-2.9,1.05s-2.02.8-2.54,1.01c.12,1.38.2,2.42.24,3.12.04.7.06,1.32.05,1.86,0,.54-.02.98-.05,1.34.34-.11.83-.26,1.47-.46s1.46-.42,2.48-.68c1.01-.27,2.01-.49,2.99-.68.98-.19,1.84-.32,2.59-.4.75-.08,1.31-.11,1.67-.1.36,0,.67.04.93.09.25.05.46.12.62.21.16.09.29.18.37.28.08.1.13.19.15.28.02.09-.01.17-.09.24-.08.07-.19.14-.32.21-.14.07-.52.13-1.15.18-.63.04-1.38.12-2.25.23-.87.11-1.85.26-2.93.47-1.08.21-2.15.46-3.22.75-1.06.29-2.11.6-3.14.94-1.03.34-2.02.69-2.99,1.07-.96.37-1.88.76-2.76,1.17-.88.41-1.87.91-2.96,1.52-1.1.6-1.77.96-2.02,1.06-.25.1-.47.19-.65.24-.18.06-.34.08-.48.06-.14-.02-.31-.13-.51-.34-.27-.27-.37-.45-.28-.57.08-.11.26-.26.52-.45.26-.19.62-.4,1.08-.64.46-.24,1.52-.75,3.18-1.55,1.66-.8,2.91-1.37,3.74-1.71.83-.34,1.65-.65,2.45-.93-.04-.43-.1-1.21-.17-2.34-.08-1.13-.17-2.38-.26-3.73-.58.24-1.38.59-2.41,1.05-1.03.46-1.74.74-2.14.84-.4.1-.76.13-1.09.11s-.6-.06-.79-.1Z"/>
      <path class="cls-1" d="M295.65,21.28c.43-.25.77-.33,1.02-.26.24.07.39.35.43.85l.03.34c-1.7,1.7-3.66,3.21-5.89,4.52-1.67.83-3.37,1.32-5.1,1.47-1.9.33-3.19.26-3.88-.21-.68-.47-1.1-1.21-1.25-2.22-.15-1.01.19-2.32,1.02-3.94.83-1.62,1.8-3.16,2.89-4.65,1.09-1.48,2.21-2.97,3.34-4.45-.77-.99-1.75-1.6-2.93-1.82-.83-.18-1.64-.11-2.44.21-.21.25-.35.57-.43.99-.08.41-.29.69-.63.85-.46-.08-.75-.35-.85-.81-.1-.46-.05-.87.16-1.22.21-.36.41-.69.6-1,.19-.31.48-.97.87-1.99.39-1.02.65-1.74.79-2.17.14-.43.24-.86.31-1.3-1.12.53-2.18.97-3.18,1.3-.56-.03-.91-.24-1.05-.62.05-.33.19-.51.42-.53.23-.02.76-.24,1.59-.65s1.76-.81,2.79-1.19c.24-1.01.5-1.94.79-2.77.6-.05.92.27.96.97l-.16,1.35c1.55-.59,2.94-1.13,4.18-1.61.4-.14.7-.1.88.11.18.21.26.43.21.67-1.89.89-3.74,1.63-5.53,2.22-.45,1.7-.87,2.99-1.26,3.88s-.67,1.64-.85,2.23c2.23-.34,4.08.34,5.56,2.03.7-1.26,1.58-2.47,2.64-3.61.24-.12.45-.14.62-.04.17.1.39.25.66.46-.24.14-.4.33-.48.57-.95,1.24-1.82,2.54-2.62,3.89.97,2.34,1.64,4.76,2.01,7.28-.43.31-.77.29-1.03-.06-.55-1.82-1.2-3.81-1.95-5.98-2.94,3.42-5.09,6.58-6.45,9.47-.49,1.26-.22,2.29.83,3.06,4.89.38,9.01-1.49,12.36-5.61Z"/>
      <path class="cls-1" d="M313.47,24.78c-.98-.5-1.68-1.21-2.12-2.16-.44-.94-.97-1.73-1.61-2.36-.02-.25.05-.4.22-.47s.38,0,.62.21c.63.52,1.15,1.17,1.57,1.94.42.77,1.01,1.47,1.77,2.11.08.24.07.42-.05.53-.12.11-.25.18-.42.19Z"/>
      <path class="cls-1" d="M0,89.14c.12-.28.38-.38.77-.28.39.09.92.61,1.6,1.55.67.94,1.32,2.79,1.93,5.53,2.72-1.58,4.83-2.68,6.33-3.28,1.49-.61,2.52-1,3.09-1.17-.2-1.31-.4-2.53-.6-3.67-1.84.04-3.42.48-4.74,1.33-1.32.85-2.15,1.45-2.49,1.79-.34.34-.71.49-1.1.45-.39-.04-.62-.18-.69-.42-.07-.24.03-.59.3-1.04.27-.45.94-.96,2.01-1.54s2.6-1.22,4.59-1.92c1.99-.7,3.2-.28,3.63,1.25.42,1.54.77,3.07,1.04,4.61s.58,3.7.92,6.49c.35,2.79.49,4.64.42,5.57-.06.93-.14,1.72-.23,2.39-.09.67-.28,1.02-.59,1.06s-.59-.05-.86-.25c-.27-.21-.38-.53-.33-.96.04-.44.05-.84.02-1.21-1.58.26-3.21.73-4.92,1.39-1.71.67-2.97,1.19-3.8,1.56-.83.37-1.34.47-1.53.3-.19-.17-.36-.3-.5-.41-.14-.1-.28-1.65-.41-4.65-.13-3-.61-5.91-1.45-8.72-.84-2.81-1.44-4.41-1.82-4.78-.37-.37-.57-.69-.6-.96ZM1,87.74c.77-1.37,1.42-2.55,1.93-3.54.51-.99.92-1.95,1.23-2.89.3-.94.64-1.38,1.01-1.31.37.06.7.19,1,.38.3.19.11,1.04-.56,2.53-.67,1.5-1.42,2.88-2.25,4.14-.83,1.26-1.36,1.84-1.58,1.74-.22-.11-.49-.24-.83-.39-.34-.16-.32-.38.05-.66ZM5.22,100.82c2.59-1.2,4.76-2.03,6.52-2.5,1.75-.46,2.73-.66,2.92-.6-.23-1.72-.47-3.32-.7-4.81-.3.11-.67.25-1.12.41-3.27,1.47-5.34,2.5-6.2,3.1-.86.6-1.54.95-2.03,1.03.19,1.02.39,2.14.61,3.36ZM12.6,99.49c-2.75.84-5.15,1.98-7.2,3.42.02.72.09,2.05.19,3.99,2.92-1.43,6.09-2.38,9.49-2.82.16-2.21.07-3.87-.28-4.97-.78.09-1.52.22-2.21.38Z"/>
      <path class="cls-1" d="M35.1,79.86c.23.21.34.38.36.53.01.14,0,.29-.07.46-.06.16-.61,1.33-1.64,3.5-1.03,2.17-1.74,3.58-2.1,4.22-.37.64-.7,1.17-1,1.58-.3.41-.54.69-.74.84-.19.15-.38.27-.55.34-.17.08-.34.11-.5.09-.17-.02-.32-.05-.45-.1-.13-.05-.22-.11-.28-.18-.06-.07-.08-.15-.07-.24.01-.09.2-.4.57-.92.37-.52.77-1.13,1.19-1.84.42-.71.86-1.47,1.3-2.27.44-.8.91-1.78,1.41-2.93.5-1.15.82-1.85.97-2.1.14-.25.28-.45.41-.6.13-.15.26-.25.39-.31.13-.06.39-.08.79-.05ZM33.22,88.96c5.05-2.22,9.36-3.29,12.91-3.21,1.13.13,1.63,1.85,1.51,5.16-.13,3.31-.7,6.21-1.71,8.7-1.02,2.49-1.69,3.75-2.02,3.79-.33.04-.62-.03-.89-.22-.26-.19-.62-.53-1.06-1.04s-.54-.89-.3-1.15c.24-.26.52-.24.86.06.34.3.53.46.57.48.04.02.46-.93,1.26-2.84.8-1.91,1.27-3.83,1.43-5.76.15-1.93.16-3.35.02-4.25-.14-.91-.31-1.43-.51-1.55-1.98.11-3.42.33-4.3.67-.88.34-1.64.61-2.26.83.03.14.05.34.07.58.01.25-.01.91-.07,1.99-.06,1.08-.25,2.21-.56,3.37-.31,1.17-.65,2.26-1.02,3.29-.37,1.03-.72,1.93-1.07,2.7-.35.78-.66,1.37-.93,1.79-.28.42-.48.69-.63.83-.14.14-.29.24-.42.32-.14.07-.27.11-.38.11-.12,0-.22-.03-.3-.08-.09-.05-.15-.13-.19-.23-.04-.1-.06-.22-.05-.35,0-.14.32-.86.95-2.18.62-1.32,1.14-2.5,1.54-3.54.41-1.04.71-1.93.9-2.67.19-.74.35-1.49.46-2.26.11-.76.17-1.34.17-1.74,0-.39-.01-.85-.06-1.36-.42.16-1.22.44-2.4.85-1.18.4-1.84.41-1.97.03s.02-.76.46-1.13ZM42.5,78.81c.04-.06.16-.09.38-.06.22.02.42.1.6.23.18.13.63.58,1.36,1.34s1.74,1.85,3.04,3.24c1.29,1.4,2.09,2.28,2.39,2.63.3.36.55.68.75.96.2.28.36.52.47.72s.17.35.16.45c0,.1-.06.2-.18.29s-.24.13-.38.11c-.14-.02-.33-.12-.57-.31s-.57-.49-.97-.93c-.4-.43-.98-1.07-1.72-1.91-.75-.84-1.42-1.61-2.02-2.29-.6-.68-1.24-1.38-1.91-2.08-.67-.71-1.09-1.16-1.25-1.37s-.26-.39-.3-.55c-.04-.16.01-.32.15-.48Z"/>
      <path class="cls-1" d="M59.88,85.67c-.38-.05-.59-.19-.63-.41-.04-.22-.07-.43-.08-.61,2.31-.68,4.48-1.64,6.53-2.9.45-1.3.72-2.71.81-4.23.27-.19.52-.23.74-.11.22.12.41.36.56.74.04.49.02.94-.07,1.34-.09.4-.17.82-.23,1.26,1.34-.57,2.56-.71,3.67-.41.61.59,1,1.42,1.15,2.49.16,1.07.16,2.14,0,3.21-.18,1.3-.38,2.35-.59,3.16-.8,3.88-2.41,7.36-4.81,10.45-.94.85-1.67.66-2.2-.55-1.22-2.31-1.53-4.71-.94-7.18.07-.4.18-.65.34-.74.16-.1.29-.1.39,0,.1.1.12.46.05,1.08-.25,2.17.19,4.23,1.32,6.16,3.75-4.8,5.36-10.25,4.82-16.35l-.05-.58c-1.18,0-2.32.37-3.42,1.11-1.11,3.41-2.57,6.81-4.37,10.19-.62.47-1.05.48-1.27.02,1.06-2.64,1.88-4.62,2.47-5.94.59-1.33,1.02-2.43,1.29-3.33-1.8,1.05-3.62,1.77-5.47,2.16ZM79.05,88.99c-.44.2-.68.1-.71-.31,1.18-.79,2.22-1.57,3.12-2.35.45-.56.45-1.14,0-1.74-2.57-1.82-5.08-3.6-7.53-5.33-.46-.31-.6-.66-.4-1.05,1.33.26,2.64.88,3.93,1.86,1.03.82,2.26,1.74,3.71,2.76,1.45,1.02,2.22,2.06,2.31,3.1-1.14,1.71-2.61,2.73-4.43,3.06ZM77.74,73.64c1.04.3,1.73.96,2.06,1.98s.71,1.97,1.14,2.87c-.14.34-.29.52-.47.52-.18,0-.37-.06-.59-.18-.41-.42-.69-.86-.85-1.32s-.31-.84-.46-1.14c-.25-.46-.51-.9-.79-1.34s-.29-.9-.04-1.38ZM80.59,73.49c.23-.17.5-.2.8-.12.3.09.54.32.71.7.16.44.38.92.64,1.42.26.5.3,1.1.11,1.78-.23.02-.38,0-.46-.04-.08-.04-.16-.15-.26-.3-.82-1.11-1.34-2.25-1.54-3.43Z"/>
      <path class="cls-1" d="M90.84,98.86c-.03-.33.8-.89,2.5-1.69,1.69-.8,4.2-1.82,7.51-3.06.19-.64.22-2.69.08-6.15-2.37,1.14-3.92,1.97-4.64,2.49-.72.52-1.25.7-1.57.54-.33-.16-.56-.4-.7-.73-.14-.33.26-.76,1.22-1.29.96-.53,2.81-1.46,5.56-2.8-.08-.94-.35-2.77-.79-5.49-2.76,1.23-4.44,2-5.04,2.29-.61.29-1.26.44-1.95.43-.7,0-1.14-.21-1.35-.64-.2-.43.29-.82,1.47-1.17,1.18-.35,3.75-1.42,7.7-3.2,3.95-1.78,6.09-2.69,6.42-2.72.33-.03.68.14,1.06.51.38.37.39.67.03.9-.35.23-.73.4-1.12.52-.4.12-2.26.9-5.6,2.35.42,2.49.7,4.25.84,5.3.5-.25,1.46-.65,2.88-1.2,1.42-.55,2.36-.59,2.8-.14s.46.92.04,1.38c-.42.46-.71.58-.89.36-.17-.22-1.7.27-4.59,1.47.28,3.62.36,5.69.26,6.22,1.88-.58,3.93-1.1,6.15-1.56,2.22-.46,3.96-.68,5.22-.64,1.26.04,2.07.23,2.43.58.36.35.38.66.05.91-.33.26-.71.36-1.12.3-.42-.06-1.73.04-3.93.28-2.2.25-4.33.67-6.41,1.26-2.07.6-4.06,1.26-5.96,2-1.9.74-3.58,1.52-5.05,2.35-1.47.83-2.39,1.12-2.74.86-.36-.26-.62-.53-.79-.8ZM96.57,73.3c.14-.09.28-.15.42-.18.14-.02.38-.02.7.02.32.03.61.12.86.25.25.13.68.45,1.3.96.61.51,1,.84,1.16,1,.16.16.27.33.34.51.07.18.1.37.08.57-.01.2-.07.39-.17.59-.1.2-.23.31-.39.34-.16.04-.32.04-.47,0-.15-.03-.29-.1-.44-.21-.14-.11-.29-.26-.44-.44-.15-.18-.23-.35-.25-.51-.01-.15-.02-.29-.02-.4,0-.11-.06-.22-.17-.31-.11-.09-.31-.21-.61-.35s-.52-.26-.68-.36c-.17-.1-.36-.26-.59-.49-.23-.23-.38-.41-.47-.53-.08-.13-.14-.28-.18-.47Z"/>
      <path class="cls-1" d="M127.26,82.7c-.78,1.27-1.55,2.53-2.3,3.77-.75,1.25-1.39,2.28-1.91,3.1-.52.82-.9,1.24-1.13,1.25-.24,0-.45-.07-.64-.24-.19-.17-.21-.43-.05-.77.16-.34.56-1.08,1.21-2.2.65-1.12,1.42-2.48,2.3-4.08s1.75-3.33,2.58-5.19c.83-1.86,1.43-2.73,1.78-2.61.35.12.59.28.71.45s0,.71-.34,1.6c-.35.89-.91,2.23-1.69,4.01,1.18.17,1.88,1.05,2.11,2.64.23,1.59.41,3.37.53,5.32.12,1.96.17,3.61.14,4.97-.03,1.36-.17,2.11-.44,2.24-.27.14-.51.14-.71.02-.21-.13-.37-.29-.49-.48-.12-.2-.14-.89-.04-2.09.09-1.2.06-2.8-.09-4.8-.15-2-.27-3.46-.35-4.38-.08-.91-.2-1.57-.34-1.97-.15-.4-.42-.58-.81-.55ZM128.02,70.68c.53-.58.92-.75,1.19-.49s.4.5.42.74-.37,1.19-1.18,2.87-1.65,3.23-2.53,4.68c-.88,1.44-1.4,2.12-1.57,2.01-.16-.1-.33-.22-.5-.36-.17-.14-.16-.4.03-.78.18-.38.46-.94.83-1.67.37-.74.87-1.7,1.51-2.89.63-1.19,1.23-2.56,1.8-4.1ZM132.25,80.64c-.06-.22.19-1.06.74-2.52.56-1.46,1.09-3.71,1.59-6.75.29-.03.54.02.76.14.22.12.46.28.73.48-.35,3.07-.83,5.3-1.44,6.69-.6,1.39-1.04,2.18-1.32,2.38-.27.2-.63.06-1.06-.42ZM141.22,85.76c-.18.76-.38,1.39-.58,1.88,3.3,2.38,5.75,4.12,7.35,5.21,1.6,1.09,2.3,1.72,2.11,1.9-.19.17-.98-.04-2.36-.65-1.38-.6-2.84-1.49-4.39-2.66-1.54-1.17-2.63-1.97-3.25-2.42-.56,1.44-1.2,2.92-1.93,4.44-.73,1.52-1.46,2.59-2.2,3.19-.74.6-1.29.9-1.68.91-.38,0-.59-.13-.61-.38-.02-.26.56-1.04,1.74-2.36,1.18-1.32,2.26-3.59,3.25-6.82-1-.78-1.83-1.27-2.48-1.47-.65-.2-1.01-.36-1.08-.46-.07-.11-.2-.29-.39-.54-.19-.25.17-.35,1.08-.28s2.04.58,3.39,1.54c.47-1.95,1.02-3.89,1.64-5.83-1.75.44-3.07.99-3.98,1.64-.91.65-1.51.81-1.81.47-.3-.34-.49-.56-.57-.68-.08-.12.34-.47,1.26-1.07.92-.6,2.14-1.12,3.64-1.58,1.5-.45,2.54-.53,3.09-.24.56.29.64.96.27,2-.38,1.04-.88,2.46-1.51,4.28ZM147.17,77.23c.06.72-.18,1.15-.73,1.3-.55.15-1.3.28-2.27.38-.97.11-1.67.02-2.12-.26-.45-.28-1.03-.89-1.73-1.83-.7-.94-1.13-2.11-1.29-3.5-.15-1.39-.21-2.23-.17-2.5.04-.27-.03-.47-.21-.6-.65.18-1.31.46-1.98.84-.67.38-1.12.42-1.36.13-.23-.29-.37-.53-.41-.73-.04-.19.28-.44.96-.74.68-.3,1.41-.64,2.2-1.02.79-.38,1.38-.42,1.78-.12.4.3.65.71.75,1.25.1.54.14,1.21.11,2.01-.02.8.14,1.75.48,2.86.35,1.11.73,1.9,1.16,2.37s1.01.65,1.76.53c.75-.12,1.18-.35,1.29-.69.12-.34.1-.66-.04-.96-.14-.3-.08-.55.18-.76.26-.21.53-.13.8.24.27.37.55.97.83,1.79Z"/>
      <path class="cls-1" d="M174.43,67.3c-2.57,3.81-4.35,8.01-5.34,12.61-.38,3.95.55,7.23,2.79,9.85.9,1.08,2.13,1.84,3.68,2.29.01.64-.26.83-.82.57-2.95-.74-5.08-2.63-6.41-5.68-.86-3.15-1-5.95-.42-8.38.58-2.43,1.14-4.22,1.69-5.36.55-1.15.95-1.99,1.19-2.53.24-.54.51-1.11.82-1.71-4.18,2.21-8.31,4.18-12.36,5.92-.91.25-1.53.21-1.86-.12-.33-.32-.47-.58-.41-.79.06-.2.34-.29.86-.28.52.02,1.29-.2,2.31-.64,4.35-1.97,8.68-4.14,13-6.51.35-.26.64-.29.88-.09s.37.48.4.85ZM173.75,69.85c.96.27,1.59.91,1.91,1.91.32,1.01.69,1.96,1.12,2.85-.1.26-.23.39-.37.39-.15,0-.31-.05-.48-.16-.39-.42-.66-.86-.81-1.31s-.31-.84-.46-1.16c-.27-.45-.53-.9-.8-1.33-.27-.43-.3-.83-.11-1.2ZM176.68,69.59c.16-.12.37-.14.63-.06.27.08.48.29.63.63.16.44.38.91.65,1.42.27.5.32,1.05.14,1.65-.17.01-.27,0-.33-.03-.06-.04-.13-.12-.23-.26-.8-1.09-1.3-2.2-1.51-3.34Z"/>
      <path class="cls-1" d="M190.37,82.77c-.15-.05-.24-.12-.27-.23-.03-.1,0-.22.08-.35.08-.13.24-.28.46-.44.22-.17,1.04-.57,2.45-1.21s2.59-1.15,3.55-1.52c-.09-1.32-.21-2.58-.33-3.79-.13-1.21-.21-2.03-.25-2.46l-1.4.68c-.84.4-2.12.96-3.87,1.67-.54,1.48-.97,2.27-1.32,2.38-.34.11-.63.14-.87.08-.23-.06-.18-.75.16-2.05.34-1.3.61-2.81.82-4.53.2-1.71.2-3.09-.02-4.13s-.19-1.6.07-1.68c.26-.08.6-.03,1.01.16.41.19.7,1.02.87,2.47.17,1.46,0,3.35-.5,5.69,1.58-.88,3.2-1.72,4.85-2.5-.16-1.37-.33-2.66-.49-3.87-.17-1.21-.3-2.18-.4-2.93-.1-.75.36-.89,1.38-.45.12.44.25.87.38,1.29.13.41.23.78.3,1.11.07.33.12.8.15,1.41s.11,1.53.24,2.74c.52-.23,1.58-.69,3.19-1.38,1.61-.69,2.55-.9,2.82-.63s.36.57.27.91c-.09.34-.46.58-1.1.73-.64.15-2.3.85-4.97,2.1.05.55.14,1.45.28,2.69.14,1.24.27,2.45.39,3.61,1.65-.6,2.86-1.01,3.63-1.23.77-.22,1.41-.4,1.93-.54.52-.14.91-.22,1.19-.26.28-.04.48,0,.62.08.13.09.23.21.29.35.06.14.04.29-.07.44-.11.16-.28.28-.5.38s-.71.27-1.46.5-1.72.58-2.9,1.04c-1.17.46-2.02.8-2.54,1.01.12,1.38.2,2.42.24,3.11.04.7.06,1.32.05,1.86,0,.54-.02.99-.05,1.34.34-.11.83-.26,1.47-.46.64-.19,1.46-.42,2.48-.68,1.01-.26,2.01-.49,2.99-.68.98-.19,1.84-.32,2.6-.4.75-.08,1.31-.11,1.67-.1.36.01.67.04.93.09.25.05.46.12.62.21.16.09.29.18.37.28.08.1.13.19.15.28s-.01.17-.09.24c-.08.07-.18.14-.32.21s-.52.13-1.15.18-1.38.12-2.25.23c-.87.11-1.85.26-2.93.47s-2.15.46-3.22.75c-1.06.29-2.11.61-3.14.94-1.03.34-2.02.69-2.99,1.07-.96.37-1.88.76-2.76,1.17-.88.41-1.87.91-2.96,1.52s-1.77.96-2.02,1.06c-.25.1-.47.19-.65.24-.18.06-.34.08-.48.06s-.31-.13-.51-.34c-.27-.27-.37-.45-.28-.56.08-.11.26-.26.52-.45.26-.19.62-.4,1.08-.64.46-.24,1.52-.75,3.18-1.55,1.66-.8,2.91-1.37,3.74-1.71.83-.34,1.65-.65,2.46-.93-.04-.43-.1-1.21-.17-2.34-.08-1.13-.17-2.38-.26-3.73-.58.24-1.38.59-2.41,1.05-1.03.46-1.74.74-2.14.84-.4.1-.76.13-1.09.11-.33-.02-.6-.06-.79-.1Z"/>
      <path class="cls-1" d="M234.01,77.86c-.56.9-1.15,1.64-1.75,2.22-.6.58-1.1.86-1.5.85-.4-.02-.74-.31-1.04-.89,2.68-1.85,3.97-4.46,3.86-7.85-.18-1.35-.55-2.53-1.12-3.54-2.55,1.69-5.15,3.23-7.81,4.6-.39.01-.67-.07-.83-.25-.16-.18-.25-.43-.28-.74,2.67-1.54,5.33-3.19,8-4.95-.22-.66-.69-1.34-1.39-2.02-1.88.81-3.83,1.53-5.85,2.16-.42-.11-.68-.29-.78-.55-.1-.26-.07-.49.08-.69,1.93-.48,3.71-1.13,5.34-1.96-.25-.29-.55-.6-.88-.95-.33-.34-.52-.75-.56-1.22.72.2,1.6.69,2.62,1.45l1.46-.72c.28-.17.51-.19.71-.08.2.12.38.38.57.77-.12.3-.32.52-.61.66-.29.14-.58.29-.88.46.61.78,1.07,1.43,1.38,1.96.33-.3.62-.48.89-.54.58.18.89.57.94,1.16-.38.16-.71.41-.99.77,1.83,3.56,1.97,6.86.43,9.9ZM225.05,81.1c2.02,2.24,4.46,3.96,7.33,5.13.24.12.36.28.37.48,0,.19-.1.4-.31.6-2.09-.65-3.98-1.62-5.67-2.92-1.19-1.03-2.23-1.98-3.11-2.83-.09-.32.01-.52.3-.6.29-.08.66-.03,1.09.14Z"/>
      <path class="cls-1" d="M269.29,59.01c-2.57,3.81-4.35,8.01-5.34,12.61-.38,3.94.55,7.23,2.79,9.85.9,1.08,2.13,1.84,3.68,2.29.01.64-.26.83-.82.57-2.95-.74-5.08-2.63-6.41-5.68-.86-3.15-1-5.95-.42-8.38.58-2.43,1.14-4.22,1.69-5.36s.95-1.99,1.2-2.53c.24-.54.51-1.11.81-1.72-4.18,2.21-8.3,4.18-12.36,5.92-.91.25-1.53.21-1.86-.12-.33-.32-.47-.58-.41-.79.06-.2.34-.29.86-.28.52.02,1.29-.2,2.31-.64,4.35-1.97,8.68-4.14,13-6.51.35-.26.64-.29.88-.09.24.2.37.48.4.85Z"/>
      <path class="cls-1" d="M287.51,77.69c-.47.5-1.04.57-1.69.21-.65-.36-1.34-2.06-2.05-5.1-.71-3.04-1.41-5.75-2.1-8.14.2-.33.55-.36,1.05-.09l.48.83c.62,1.81,1.05,3.68,1.3,5.63.25,1.01.54,1.99.86,2.92.32.93.61,1.65.86,2.14.25.5.89-.01,1.91-1.52,1.02-1.51,2.27-3.77,3.75-6.8-.64-5.39.3-9.28,2.81-11.67,1.55-.3,2.8.22,3.75,1.57.41.67.77,1.9,1.07,3.69,2.1-.2,3.4.73,3.92,2.79.27,3.29-.39,6.47-1.97,9.55-.6.98-1.34,1.8-2.21,2.46-.58.73-.95,1.6-1.12,2.61-.17,1.01-.43,1.76-.78,2.26-.35.5-.64.87-.87,1.12-.63-.52-.76-1.07-.41-1.62.36-.56.56-1.16.62-1.79.06-.64.12-1.31.18-2.02-1.87.21-3.18-.78-3.93-2.95-.22-1.14-.49-2.16-.8-3.07-.3.61-.59,1.16-.88,1.66-.98,2.05-2.23,3.83-3.74,5.33ZM295.53,57.24c-1.79,2.33-2.55,5.16-2.28,8.49,1.26-1.72,2.84-3.01,4.73-3.86-.03-1.26-.24-2.39-.64-3.39-.42-.79-1.03-1.2-1.82-1.24ZM293.51,68.31c0,2.07.37,4.04,1.14,5.89.59,1.07,1.46,1.49,2.6,1.26.81-4,1.11-7.96.89-11.88-1.87,1.22-3.41,2.79-4.63,4.72ZM299.68,62.75c.17,3.59.03,7.38-.41,11.37,2.02-3.22,2.94-6.5,2.75-9.83-.41-1.35-1.19-1.86-2.34-1.53Z"/>
      <path class="cls-1" d="M331.34,78.98c-.53-.12-1.14-.53-1.82-1.24-3.08-3.17-6.32-6.3-9.72-9.4-.46-1.24-.38-2.41.25-3.5.76-1.45,1.78-2.84,3.06-4.15,1.9-2.19,3.08-4.7,3.54-7.51.23-.02.4.02.52.12.12.1.25.33.38.67.21,1.02.1,1.97-.34,2.87-.44.9-1.01,1.87-1.71,2.91-.7,1.04-1.45,2.07-2.27,3.07-.82,1-1.5,1.93-2.06,2.79-.56.86-.67,1.6-.35,2.23,3.73,3.3,7.25,6.65,10.56,10.07.29.43.27.78-.06,1.06Z"/>
      <path class="cls-1" d="M348.14,77.17c-1.23-.08-1.98-.7-2.25-1.85-.09-1.54.2-2.65.88-3.32.68-.67,1.35-.97,2.02-.89.67.08,1.2.23,1.6.46.39.24.67.52.82.86.36,1.02.34,2.07-.07,3.14-.72,1-1.72,1.53-3,1.6ZM348.25,72.35c-.8.63-1.24,1.47-1.33,2.54.14.46.34.8.59,1,.43.21.96.22,1.59.02.71-.41,1.09-.85,1.14-1.31.05-.46-.01-1.03-.2-1.72-.16-.44-.43-.68-.79-.71-.37-.03-.7.03-1,.18Z"/>
    </g>
    <path class="cls-1" d="M2.21,128.32c18.7,4.53,38.18-.46,56.62-3.98,19.6-3.75,39.21-7.5,58.81-11.26,11.11-2.13,22.22-4.25,33.33-6.38.43-.08,1.63-.34,1.66-.94s-.8-.62-1.23-.54c-19.36,3.71-38.72,7.41-58.08,11.12-9.72,1.86-19.44,3.72-29.16,5.58s-18.85,3.8-28.35,5.23c-10.55,1.59-21.34,2.22-31.8-.31-.85-.21-3.39,1.1-1.8,1.48h0Z"/>
  </g>
</svg>